<svg width="24" height="24" viewBox="0 0 24 24" fill="none" xmlns="http://www.w3.org/2000/svg">
<path d="M3.5 12C3.5 9.74566 4.39553 7.58365 5.98959 5.98959C7.58365 4.39553 9.74566 3.5 12 3.5C14.2543 3.5 16.4163 4.39553 18.0104 5.98959C19.6045 7.58365 20.5 9.74566 20.5 12V14H18.25C18.0511 14 17.8603 14.079 17.7197 14.2197C17.579 14.3603 17.5 14.5511 17.5 14.75V21.25C17.5 21.664 17.836 22 18.25 22H19C19.7956 22 20.5587 21.6839 21.1213 21.1213C21.6839 20.5587 22 19.7956 22 19V12C22 6.477 17.523 2 12 2C6.477 2 2 6.477 2 12V19C2 19.7956 2.31607 20.5587 2.87868 21.1213C3.44129 21.6839 4.20435 22 5 22H5.75C5.94891 22 6.13968 21.921 6.28033 21.7803C6.42098 21.6397 6.5 21.4489 6.5 21.25V14.75C6.5 14.5511 6.42098 14.3603 6.28033 14.2197C6.13968 14.079 5.94891 14 5.75 14H3.5V12ZM12.75 11.75C12.75 11.5511 12.671 11.3603 12.5303 11.2197C12.3897 11.079 12.1989 11 12 11C11.8011 11 11.6103 11.079 11.4697 11.2197C11.329 11.3603 11.25 11.5511 11.25 11.75V22.25C11.25 22.4489 11.329 22.6397 11.4697 22.7803C11.6103 22.921 11.8011 23 12 23C12.1989 23 12.3897 22.921 12.5303 22.7803C12.671 22.6397 12.75 22.4489 12.75 22.25V11.75ZM8.75 14C8.94891 14 9.13968 14.079 9.28033 14.2197C9.42098 14.3603 9.5 14.5511 9.5 14.75V19.25C9.5 19.4489 9.42098 19.6397 9.28033 19.7803C9.13968 19.921 8.94891 20 8.75 20C8.55109 20 8.36032 19.921 8.21967 19.7803C8.07902 19.6397 8 19.4489 8 19.25V14.75C8 14.5511 8.07902 14.3603 8.21967 14.2197C8.36032 14.079 8.55109 14 8.75 14ZM16 14.75C16 14.5511 15.921 14.3603 15.7803 14.2197C15.6397 14.079 15.4489 14 15.25 14C15.0511 14 14.8603 14.079 14.7197 14.2197C14.579 14.3603 14.5 14.5511 14.5 14.75V19.25C14.5 19.4489 14.579 19.6397 14.7197 19.7803C14.8603 19.921 15.0511 20 15.25 20C15.4489 20 15.6397 19.921 15.7803 19.7803C15.921 19.6397 16 19.4489 16 19.25V14.75Z" fill="#B794F4"/>
</svg>
