<svg width="56" height="56" viewBox="0 0 56 56" fill="none" xmlns="http://www.w3.org/2000/svg">
<path d="M53.5354 37.7184C53.0036 36.8286 53.3805 35.6738 54.335 35.269L54.339 35.2673C55.4195 34.8089 55.727 33.4229 54.9414 32.5507L54.9387 32.5477C54.2447 31.7774 54.3917 30.5717 55.2499 29.99C56.2225 29.331 56.2551 27.9094 55.3136 27.2064L55.3116 27.2047C54.4816 26.585 54.3897 25.375 55.1163 24.6367L55.118 24.635C55.9423 23.7978 55.6951 22.3975 54.6339 21.8931L54.6326 21.8924C53.6967 21.4476 53.3691 20.2789 53.9372 19.4123L53.9389 19.41C54.5829 18.4278 54.0668 17.1038 52.9283 16.8163L52.927 16.816C51.9218 16.5624 51.3724 15.479 51.7612 14.5181L51.7622 14.5161C52.2027 13.4277 51.4397 12.2296 50.2669 12.1686L50.2646 12.1683C49.2294 12.1147 48.4801 11.1585 48.675 10.1403L48.6753 10.1386C48.8962 8.98523 47.9147 7.95774 46.7522 8.12599L46.7492 8.12633C45.7237 8.27492 44.8031 7.48365 44.7958 6.4475V6.44584C44.7875 5.27076 43.623 4.45484 42.5155 4.84798L42.5132 4.84897C41.537 5.19547 40.4795 4.60043 40.2686 3.58628L40.2679 3.58328C40.029 2.43319 38.727 1.86148 37.7185 2.46417L37.7181 2.46451C36.8282 2.99624 35.6734 2.61943 35.2686 1.66491L35.2669 1.66091C34.8088 0.580453 33.4225 0.272942 32.5505 1.05855L32.5475 1.06121C31.7769 1.75486 30.5711 1.60827 29.9897 0.750035H29.9894C29.3304 -0.222477 27.909 -0.255125 27.2057 0.686402L27.2044 0.6884C26.5847 1.51832 25.3746 1.61027 24.6366 0.883634L24.6352 0.882302C23.798 0.057717 22.3976 0.304927 21.8932 1.36639L21.8928 1.36739C21.4481 2.30326 20.2793 2.63109 19.4127 2.06271L19.4103 2.06104C18.4281 1.41703 17.1041 1.93311 16.8166 3.07153L16.8162 3.0732C16.5623 4.07836 15.4792 4.62775 14.5183 4.23861L14.5163 4.23762C13.4278 3.79684 12.2297 4.56012 12.1687 5.73286V5.7352C12.1151 6.77034 11.1589 7.51963 10.1407 7.32473L10.139 7.3244C8.98555 7.10317 7.95802 8.08501 8.12628 9.24743L8.12661 9.25076C8.27488 10.2762 7.48391 11.1968 6.44773 11.2041H6.4464C5.27128 11.2124 4.45533 12.3769 4.84848 13.4843L4.84914 13.4863C5.19565 14.4625 4.6006 15.5203 3.58641 15.7308L3.58341 15.7315C2.43328 15.9704 1.86154 17.2724 2.46426 18.2809L2.46459 18.2812C2.99635 19.1711 2.61951 20.3259 1.66496 20.7307L1.66096 20.7323C0.580469 21.1908 0.273285 22.5767 1.05858 23.4486L1.06125 23.4516C1.75492 24.2219 1.60833 25.428 0.750064 26.0093C-0.222482 26.6683 -0.255136 28.09 0.686424 28.7929L0.688417 28.7946C1.51836 29.4143 1.61033 30.6243 0.883668 31.3626L0.882326 31.3643C0.0577115 32.2016 0.304938 33.6019 1.36611 34.1063L1.36744 34.1069C2.30334 34.5517 2.63118 35.7208 2.06277 36.5874L2.06144 36.5897C1.41741 37.5719 1.93318 38.8962 3.07198 39.1834L3.07364 39.1837C4.07884 39.4376 4.62858 40.5207 4.23943 41.4816L4.23876 41.4836C3.79797 42.572 4.56128 43.7701 5.73406 43.831H5.73607C6.77158 43.8847 7.5209 44.8409 7.32566 45.859L7.32532 45.8607C7.10442 47.0141 8.08596 48.0416 9.24809 47.8733L9.25142 47.873C10.2769 47.7244 11.1975 48.5157 11.2048 49.5518V49.5535C11.2132 50.7286 12.3776 51.5445 13.4851 51.1517L13.4874 51.1507C14.4637 50.8042 15.5212 51.3992 15.7321 52.4134L15.7327 52.4167C15.972 53.5668 17.2737 54.1385 18.2822 53.5358L18.2825 53.5355C19.1725 53.0038 20.3273 53.3809 20.7321 54.3351L20.7337 54.3391C21.1918 55.4196 22.5779 55.7271 23.4501 54.9418L23.4535 54.9388C24.2241 54.2451 25.4295 54.3917 26.0113 55.25C26.6703 56.2225 28.0919 56.2551 28.7946 55.3136L28.7963 55.3113C29.4163 54.4814 30.6261 54.3894 31.3644 55.1164L31.3658 55.1177C32.203 55.9423 33.6034 55.6951 34.1078 54.6339L34.1085 54.6329C34.5533 53.6971 35.7224 53.3696 36.589 53.9376L36.5913 53.939C37.5735 54.583 38.8976 54.0672 39.1851 52.9285L39.1854 52.9268C39.4393 51.9216 40.5225 51.3722 41.4834 51.7611L41.4857 51.7621C42.5742 52.2025 43.7723 51.4395 43.8333 50.2668V50.2645C43.8872 49.229 44.8431 48.48 45.8613 48.6749L45.863 48.6753C47.0164 48.8965 48.044 47.9147 47.8757 46.7522L47.8754 46.7489C47.7268 45.7234 48.5181 44.8029 49.5543 44.7956H49.5556C50.7307 44.7872 51.5467 43.6228 51.1538 42.5154L51.1532 42.5134C50.8067 41.5372 51.4017 40.4797 52.4159 40.2692L52.4189 40.2685C53.5694 40.0296 54.1408 38.7276 53.5381 37.7191L53.5354 37.7184ZM23.056 50.2848C10.7481 47.5545 2.98368 35.3643 5.71374 23.0568C8.4438 10.7493 20.6348 2.98524 32.9427 5.7152C45.2506 8.44517 53.015 20.6357 50.2849 32.9432C47.5549 45.2507 35.3639 53.0148 23.056 50.2848Z" fill="url(#paint0_linear_441_48507)"/>
<circle cx="28" cy="28" r="23" fill="#101012"/>
<path d="M28.4884 29.2577C28.652 28.9027 28.9495 28.4579 29.4726 27.9197C29.7262 27.664 30.0312 27.3821 30.4027 27.0852C30.4646 27.0375 30.5265 26.9899 30.5883 26.9422C30.6502 26.8945 30.7121 26.8468 30.7791 26.7992C33.1758 25.0155 35.0443 25.0177 36.8841 22.426C38.2131 20.5573 38.5215 18.203 38.2703 16.1312C38.2556 16.0875 38.236 16.0438 38.2163 16C38.2163 16 38.0489 16.5883 37.4773 17.2883C37.2904 17.5182 36.1308 18.6793 34.3568 19.1238C32.5521 19.5785 31.0126 20.9333 30.5866 21.4517C30.171 21.9593 29.0238 22.9905 28.4952 26.6645C28.4948 26.6862 28.4894 26.7078 28.484 26.7294C28.4781 26.7781 28.4721 26.8323 28.461 26.8863C28.3912 27.4167 28.417 28.3287 28.4833 29.2577L28.4884 29.2577Z" fill="url(#paint1_linear_441_48507)"/>
<path d="M28.4883 29.2578C28.576 30.4313 28.7395 31.6388 28.874 32.135C28.874 32.135 28.874 32.135 28.8739 32.1405C28.8786 32.1623 28.8884 32.1896 28.8931 32.2114C28.8931 32.2114 28.8929 32.2222 28.8928 32.2276C28.8927 32.2385 28.9183 32.2507 28.9232 32.2617C28.9866 31.8126 29.2941 31.0415 30.4982 29.9571C30.648 29.8243 30.8133 29.6809 30.9888 29.5376C31.1126 29.4369 31.2364 29.3415 31.3601 29.2461C32.0095 28.7645 32.6161 28.4123 33.1965 28.103C34.7631 27.2695 36.1206 26.7631 37.4651 24.8729C39.3675 22.1956 39.1831 18.53 38.2499 16.1255C38.5013 18.1918 38.1929 20.5461 36.8638 22.4203C35.0189 25.0119 33.1555 25.0098 30.7588 26.7935C30.6969 26.8412 30.635 26.8889 30.568 26.9365C30.5062 26.9842 30.4443 27.0318 30.3824 27.0795C30.011 27.3764 29.7059 27.6583 29.4523 27.914C28.9242 28.4467 28.652 28.8743 28.4883 29.2293V29.2578Z" fill="url(#paint2_linear_441_48507)"/>
<path d="M28.903 32.2091C29.414 33.9601 29.7302 35.4797 31.1949 37.1346C33.3394 39.5616 36.6247 39.791 38.872 39.0514C38.913 39.036 38.959 39.0259 39 39.0105C39 39.0105 38.5 38.7569 37.9416 38.0359C37.7622 37.8046 36.8742 36.3775 36.6882 34.3558C36.503 32.3016 35.4901 30.4273 35.0812 29.8988C34.8169 29.5575 34.3908 28.8335 33.2117 28.0845C32.6313 28.3938 32.0248 28.7461 31.3754 29.2277C31.2517 29.3176 31.1279 29.413 31.004 29.5192C30.8235 29.6623 30.6582 29.8057 30.5134 29.9387C29.3043 31.023 28.9809 31.8036 28.9227 32.2474C28.9229 32.2366 28.913 32.2201 28.9081 32.2092L28.903 32.2091Z" fill="url(#paint3_linear_441_48507)"/>
<path d="M27.4834 29.3651C27.3198 29.0101 27.0223 28.5653 26.4992 28.0271C26.2455 27.7714 25.9405 27.4895 25.5691 27.1926C25.5072 27.1449 25.4453 27.0972 25.3834 27.0496C25.3216 27.0019 25.2597 26.9542 25.1927 26.9066C22.796 25.1228 20.9274 25.125 19.0877 22.5334C17.7588 20.6646 17.4503 18.3103 17.7015 16.2386C17.7161 16.1949 17.7357 16.1511 17.7554 16.1074C17.7554 16.1074 17.9229 16.6956 18.4944 17.3957C18.6814 17.6255 19.841 18.7867 21.615 19.2311C23.4197 19.6858 24.9592 21.0407 25.3852 21.559C25.8008 22.0667 26.948 23.0979 27.4766 26.7719C27.4769 26.7936 27.4824 26.8152 27.4878 26.8368C27.4937 26.8855 27.4997 26.9396 27.5108 26.9937C27.5806 27.5241 27.5548 28.436 27.4885 29.365L27.4834 29.3651Z" fill="url(#paint4_linear_441_48507)"/>
<path d="M27.5095 29.2391C27.4218 30.4126 27.2583 31.6201 27.1239 32.1163C27.1239 32.1163 27.1239 32.1163 27.1239 32.1217C27.1192 32.1435 27.1095 32.1708 27.1047 32.1926C27.1047 32.1926 27.1049 32.2035 27.105 32.2089C27.1052 32.2197 27.0795 32.232 27.0746 32.2429C27.0112 31.7938 26.7037 31.0228 25.4996 29.9384C25.3498 29.8055 25.1845 29.6621 25.0091 29.5189C24.8852 29.4181 24.7615 29.3228 24.6377 29.2274C23.9883 28.7458 23.3817 28.3936 22.8013 28.0842C21.2348 27.2508 19.8773 26.7443 18.5327 24.8542C16.6305 22.1768 16.8148 18.5113 17.7479 16.1068C17.4966 18.1731 17.805 20.5274 19.1341 22.4015C20.9789 24.9931 22.8423 24.991 25.2391 26.7748C25.3009 26.8225 25.3628 26.8701 25.4298 26.9177C25.4917 26.9654 25.5535 27.0131 25.6154 27.0608C25.9869 27.3577 26.2919 27.6395 26.5456 27.8952C27.0736 28.428 27.3459 28.813 27.5095 29.168V29.2391Z" fill="url(#paint5_linear_441_48507)"/>
<path d="M27.097 32.1955C26.586 33.9465 26.2697 35.4661 24.805 37.1209C22.6606 39.5479 19.3752 39.7772 17.128 39.0379C17.087 39.0223 17.041 39.0124 17 38.9968C17 38.9968 17.4999 38.7434 18.0583 38.0222C18.2378 37.791 19.1258 36.3639 19.3117 34.3423C19.4969 32.288 20.51 30.4137 20.9188 29.8852C21.1831 29.5439 21.6091 28.8198 22.7882 28.0709C23.3686 28.3802 23.9752 28.7324 24.6246 29.2141C24.7483 29.304 24.872 29.3994 24.996 29.5056C25.1765 29.6487 25.3418 29.7921 25.4865 29.9251C26.6957 31.0093 27.0191 31.79 27.0772 32.2338C27.0771 32.223 27.087 32.2065 27.0919 32.1955L27.097 32.1955Z" fill="url(#paint6_linear_441_48507)"/>
<defs>
<linearGradient id="paint0_linear_441_48507" x1="0" y1="28" x2="56" y2="28" gradientUnits="userSpaceOnUse">
<stop stop-color="#B794F4"/>
<stop offset="1" stop-color="#965AFF"/>
</linearGradient>
<linearGradient id="paint1_linear_441_48507" x1="29.1721" y1="26.3679" x2="40.4467" y2="16.9485" gradientUnits="userSpaceOnUse">
<stop stop-color="#FFED8A"/>
<stop offset="0.21" stop-color="#FFDE2E"/>
<stop offset="0.43" stop-color="#D1B000"/>
<stop offset="0.93" stop-color="#756300"/>
</linearGradient>
<linearGradient id="paint2_linear_441_48507" x1="30.3612" y1="28.3432" x2="41.6872" y2="18.0741" gradientUnits="userSpaceOnUse">
<stop stop-color="#FFED8A"/>
<stop offset="0.93" stop-color="#FFD700"/>
</linearGradient>
<linearGradient id="paint3_linear_441_48507" x1="37.7082" y1="38.6745" x2="28.7909" y2="29.0422" gradientUnits="userSpaceOnUse">
<stop stop-color="#FFED8A"/>
<stop offset="0.125" stop-color="#FFE55C"/>
<stop offset="0.3" stop-color="#FFDE2E"/>
<stop offset="0.46" stop-color="#FFD700"/>
<stop offset="0.54" stop-color="#D1B000"/>
<stop offset="0.7" stop-color="#A38A00"/>
<stop offset="0.83" stop-color="#756300"/>
</linearGradient>
<linearGradient id="paint4_linear_441_48507" x1="26.7997" y1="26.4752" x2="15.5251" y2="17.0558" gradientUnits="userSpaceOnUse">
<stop stop-color="#FFED8A"/>
<stop offset="0.21" stop-color="#FFDE2E"/>
<stop offset="0.43" stop-color="#D1B000"/>
<stop offset="0.93" stop-color="#756300"/>
</linearGradient>
<linearGradient id="paint5_linear_441_48507" x1="25.6373" y1="28.3245" x2="14.3114" y2="18.0554" gradientUnits="userSpaceOnUse">
<stop stop-color="#FFED8A"/>
<stop offset="0.93" stop-color="#FFD700"/>
</linearGradient>
<linearGradient id="paint6_linear_441_48507" x1="18.6567" y1="38.6747" x2="27.2115" y2="29.0064" gradientUnits="userSpaceOnUse">
<stop stop-color="#FFED8A"/>
<stop offset="0.119792" stop-color="#FFE55C"/>
<stop offset="0.3" stop-color="#FFDE2E"/>
<stop offset="0.46" stop-color="#FFD700"/>
<stop offset="0.54" stop-color="#D1B000"/>
<stop offset="0.7" stop-color="#A38A00"/>
<stop offset="0.83" stop-color="#756300"/>
</linearGradient>
</defs>
</svg>
