<svg width="24" height="24" viewBox="0 0 24 24" fill="none" xmlns="http://www.w3.org/2000/svg">
<path d="M9.70398 16.294C9.79683 16.3869 9.87046 16.4972 9.92068 16.6186C9.97091 16.74 9.99673 16.87 9.99668 17.0014C9.99664 17.1327 9.97072 17.2628 9.92041 17.3841C9.87011 17.5054 9.79639 17.6157 9.70348 17.7085C9.61057 17.8014 9.50028 17.875 9.37892 17.9252C9.25755 17.9754 9.12748 18.0013 8.99613 18.0012C8.86478 18.0012 8.73473 17.9753 8.61339 17.925C8.49206 17.8746 8.38183 17.8009 8.28898 17.708L3.29198 12.704C3.10482 12.5165 2.99969 12.2624 2.99969 11.9975C2.99969 11.7326 3.10482 11.4785 3.29198 11.291L8.28998 6.29302C8.47749 6.10538 8.73186 5.99991 8.99713 5.99982C9.2624 5.99972 9.51684 6.10501 9.70448 6.29252C9.89212 6.48003 9.99759 6.7344 9.99768 6.99967C9.99778 7.26494 9.89249 7.51938 9.70498 7.70702L6.40998 11H13C15.0784 11 17.0752 11.809 18.5677 13.2555C20.0601 14.702 20.931 16.6726 20.996 18.75L21 19C21 19.2652 20.8946 19.5196 20.7071 19.7071C20.5196 19.8947 20.2652 20 20 20C19.7348 20 19.4804 19.8947 19.2929 19.7071C19.1053 19.5196 19 19.2652 19 19C19 17.4476 18.3984 15.9557 17.3215 14.8375C16.2446 13.7194 14.7763 13.0622 13.225 13.004L13 13H6.41398L9.70398 16.294Z" fill="#B794F4"/>
</svg>
