<svg width="24" height="24" viewBox="0 0 24 24" fill="none" xmlns="http://www.w3.org/2000/svg">
<g clip-path="url(#clip0_423_4)">
<path d="M13.9278 10.6667C14.604 10.6667 15.1528 11.1893 15.1528 11.8333V14.9993C15.1528 15.7952 14.8209 16.5584 14.23 17.1211C13.6391 17.6839 12.8377 18 12.0021 18C11.1665 18 10.3651 17.6839 9.77422 17.1211C9.18335 16.5584 8.8514 15.7952 8.8514 14.9993V11.8333C8.8514 11.1893 9.3995 10.6667 10.0764 10.6667H13.9278ZM8.5917 10.6667C8.3467 10.948 8.1892 11.3 8.1577 11.6867L8.1507 11.8333V14.9993C8.1507 15.564 8.2851 16.0987 8.5245 16.576C8.1096 16.6817 7.67472 16.6951 7.25351 16.6152C6.83229 16.5353 6.43601 16.3642 6.09532 16.1151C5.75463 15.866 5.47865 15.5457 5.28872 15.1788C5.0988 14.8119 5.00001 14.4084 5 13.9993V11.8333C5.00001 11.5405 5.11562 11.2585 5.32388 11.0431C5.53213 10.8277 5.81781 10.6948 6.1242 10.6707L6.225 10.6667H8.5917ZM15.4125 10.6667H17.775C18.4512 10.6667 19 11.1893 19 11.8333V14C19.0001 14.4088 18.9015 14.8121 18.7119 15.1788C18.5222 15.5455 18.2466 15.8658 17.9063 16.1149C17.566 16.364 17.1701 16.5353 16.7492 16.6155C16.3283 16.6956 15.8937 16.6826 15.479 16.5773C15.689 16.1587 15.8178 15.6973 15.8465 15.2093L15.8528 14.9993V11.8333C15.8528 11.39 15.6883 10.9833 15.4125 10.6667ZM12 6C12.557 6 13.0911 6.21071 13.4849 6.58579C13.8788 6.96086 14.1 7.46957 14.1 8C14.1 8.53043 13.8788 9.03914 13.4849 9.41421C13.0911 9.78929 12.557 10 12 10C11.443 10 10.9089 9.78929 10.5151 9.41421C10.1212 9.03914 9.9 8.53043 9.9 8C9.9 7.46957 10.1212 6.96086 10.5151 6.58579C10.9089 6.21071 11.443 6 12 6ZM16.55 6.66667C17.0141 6.66667 17.4592 6.84226 17.7874 7.15482C18.1156 7.46738 18.3 7.89131 18.3 8.33333C18.3 8.77536 18.1156 9.19928 17.7874 9.51184C17.4592 9.82441 17.0141 10 16.55 10C16.0859 10 15.6408 9.82441 15.3126 9.51184C14.9844 9.19928 14.8 8.77536 14.8 8.33333C14.8 7.89131 14.9844 7.46738 15.3126 7.15482C15.6408 6.84226 16.0859 6.66667 16.55 6.66667ZM7.45 6.66667C7.91413 6.66667 8.35925 6.84226 8.68744 7.15482C9.01563 7.46738 9.2 7.89131 9.2 8.33333C9.2 8.77536 9.01563 9.19928 8.68744 9.51184C8.35925 9.82441 7.91413 10 7.45 10C6.98587 10 6.54075 9.82441 6.21256 9.51184C5.88437 9.19928 5.7 8.77536 5.7 8.33333C5.7 7.89131 5.88437 7.46738 6.21256 7.15482C6.54075 6.84226 6.98587 6.66667 7.45 6.66667Z" fill="#808080"/>
<path d="M12 23C18.0751 23 23 18.0751 23 12C23 5.92487 18.0751 1 12 1C5.92487 1 1 5.92487 1 12C1 18.0751 5.92487 23 12 23Z" stroke="#808080" stroke-width="1.5"/>
</g>
<defs>
<clipPath id="clip0_423_4">
<rect width="24" height="24" fill="white"/>
</clipPath>
</defs>
</svg>
