<svg width="24" height="24" viewBox="0 0 24 24" fill="none" xmlns="http://www.w3.org/2000/svg">
<path d="M5.25 18C4.38805 18 3.5614 17.6576 2.9519 17.0481C2.34241 16.4386 2 15.612 2 14.75V6.25C2 5.38805 2.34241 4.5614 2.9519 3.9519C3.5614 3.34241 4.38805 3 5.25 3H18.75C19.1768 3 19.5994 3.08406 19.9937 3.24739C20.388 3.41072 20.7463 3.65011 21.0481 3.9519C21.3499 4.25369 21.5893 4.61197 21.7526 5.00628C21.9159 5.40059 22 5.8232 22 6.25V14.75C22 15.1768 21.9159 15.5994 21.7526 15.9937C21.5893 16.388 21.3499 16.7463 21.0481 17.0481C20.7463 17.3499 20.388 17.5893 19.9937 17.7526C19.5994 17.9159 19.1768 18 18.75 18H12.965L7.578 21.817C7.42841 21.923 7.25258 21.9858 7.06971 21.9985C6.88684 22.0113 6.70398 21.9736 6.54111 21.8895C6.37824 21.8053 6.24163 21.6781 6.14619 21.5216C6.05076 21.365 6.00019 21.1853 6 21.002V18H5.25Z" fill="#B794F4"/>
</svg>
