<svg width="24" height="24" viewBox="0 0 24 24" fill="none" xmlns="http://www.w3.org/2000/svg">
<path d="M14.75 15C15.716 15 16.5 15.784 16.5 16.75L16.499 17.712C16.616 19.902 14.988 21.009 12.067 21.009C9.157 21.009 7.5 19.919 7.5 17.75V16.75C7.5 15.784 8.284 15 9.25 15H14.75ZM3.75 10H8.126C7.95152 10.679 7.95823 11.3919 8.14546 12.0675C8.3327 12.743 8.6939 13.3577 9.193 13.85L9.355 14.001L9.25 14C8.64983 13.9998 8.06606 14.1959 7.58778 14.5585C7.10949 14.921 6.76294 15.4301 6.601 16.008L6.567 16.009C3.657 16.009 2 14.919 2 12.75V11.75C2 10.784 2.784 10 3.75 10ZM20.25 10C21.216 10 22 10.784 22 11.75L21.999 12.712C22.116 14.902 20.488 16.009 17.567 16.009L17.398 16.007C17.2443 15.4623 16.9265 14.9781 16.488 14.6203C16.0495 14.2625 15.5115 14.0484 14.947 14.007L14.75 14L14.645 14.001C15.2001 13.5134 15.6089 12.8813 15.8259 12.175C16.0429 11.4688 16.0596 10.7162 15.874 10.001L20.25 10ZM12 8C12.394 8 12.7841 8.0776 13.1481 8.22836C13.512 8.37913 13.8427 8.6001 14.1213 8.87868C14.3999 9.15726 14.6209 9.48797 14.7716 9.85195C14.9224 10.2159 15 10.606 15 11C15 11.394 14.9224 11.7841 14.7716 12.1481C14.6209 12.512 14.3999 12.8427 14.1213 13.1213C13.8427 13.3999 13.512 13.6209 13.1481 13.7716C12.7841 13.9224 12.394 14 12 14C11.2044 14 10.4413 13.6839 9.87868 13.1213C9.31607 12.5587 9 11.7956 9 11C9 10.2044 9.31607 9.44129 9.87868 8.87868C10.4413 8.31607 11.2044 8 12 8ZM6.5 3C7.29565 3 8.05871 3.31607 8.62132 3.87868C9.18393 4.44129 9.5 5.20435 9.5 6C9.5 6.79565 9.18393 7.55871 8.62132 8.12132C8.05871 8.68393 7.29565 9 6.5 9C5.70435 9 4.94129 8.68393 4.37868 8.12132C3.81607 7.55871 3.5 6.79565 3.5 6C3.5 5.20435 3.81607 4.44129 4.37868 3.87868C4.94129 3.31607 5.70435 3 6.5 3ZM17.5 3C18.2956 3 19.0587 3.31607 19.6213 3.87868C20.1839 4.44129 20.5 5.20435 20.5 6C20.5 6.79565 20.1839 7.55871 19.6213 8.12132C19.0587 8.68393 18.2956 9 17.5 9C16.7044 9 15.9413 8.68393 15.3787 8.12132C14.8161 7.55871 14.5 6.79565 14.5 6C14.5 5.20435 14.8161 4.44129 15.3787 3.87868C15.9413 3.31607 16.7044 3 17.5 3Z" fill="#B794F4"/>
</svg>
