<svg width="24" height="24" viewBox="0 0 24 24" fill="none" xmlns="http://www.w3.org/2000/svg">
<path d="M13.94 5L19 10.06L9.06199 20C8.78514 20.277 8.44079 20.4769 8.06299 20.58L2.94699 21.975C2.81948 22.0096 2.68509 22.0099 2.55743 21.9759C2.42977 21.9418 2.31336 21.8747 2.21999 21.7812C2.12662 21.6877 2.0596 21.5713 2.02571 21.4436C1.99181 21.3159 1.99226 21.1815 2.02699 21.054L3.42199 15.938C3.52509 15.5602 3.72501 15.2159 4.00199 14.939L13.938 5H13.94ZM21.03 2.97C21.701 3.641 22.0779 4.55107 22.0779 5.5C22.0779 6.44893 21.701 7.359 21.03 8.03L20.06 9L15 3.94L15.97 2.97C16.641 2.29901 17.5511 1.92206 18.5 1.92206C19.4489 1.92206 20.359 2.29901 21.03 2.97Z" fill="#808080"/>
</svg>
