<svg width="24" height="24" viewBox="0 0 24 24" fill="none" xmlns="http://www.w3.org/2000/svg">
<path d="M8.707 7.084C7.687 6.677 6.677 7.688 7.083 8.708L8.689 12.736C8.92031 13.3163 9.26381 13.8452 9.69983 14.2926C10.1359 14.7399 10.6558 15.0969 11.23 15.343L15.555 17.197C16.593 17.642 17.641 16.593 17.197 15.556L15.343 11.23C15.0969 10.6558 14.7399 10.1359 14.2926 9.69983C13.8452 9.26381 13.3163 8.92031 12.736 8.689L8.707 7.084ZM10.082 12.18L8.692 8.692L12.18 10.082C12.5772 10.2404 12.9393 10.4756 13.2454 10.7742C13.5515 11.0728 13.7957 11.4289 13.964 11.822L15.572 15.572L11.821 13.965C11.428 13.7965 11.072 13.5521 10.7736 13.2458C10.4752 12.9395 10.2402 12.5773 10.082 12.18Z" fill="#808080"/>
<path d="M12 2C6.477 2 2 6.477 2 12C2 17.523 6.477 22 12 22C17.523 22 22 17.523 22 12C22 6.477 17.523 2 12 2ZM4.25 11H3.558C3.78309 9.10424 4.63953 7.33936 5.98945 5.98945C7.33936 4.63953 9.10424 3.78309 11 3.558V4.25C11 4.44891 11.079 4.63968 11.2197 4.78033C11.3603 4.92098 11.5511 5 11.75 5C11.9489 5 12.1397 4.92098 12.2803 4.78033C12.421 4.63968 12.5 4.44891 12.5 4.25V3.514C14.4918 3.63154 16.3788 4.44586 17.8307 5.81443C19.2827 7.18299 20.207 9.01862 20.442 11H19.75C19.5511 11 19.3603 11.079 19.2197 11.2197C19.079 11.3603 19 11.5511 19 11.75C19 11.9489 19.079 12.1397 19.2197 12.2803C19.3603 12.421 19.5511 12.5 19.75 12.5H20.485C20.3623 14.5777 19.4816 16.5382 18.0099 18.0099C16.5382 19.4816 14.5777 20.3623 12.5 20.485V19.75C12.5 19.5511 12.421 19.3603 12.2803 19.2197C12.1397 19.079 11.9489 19 11.75 19C11.5511 19 11.3603 19.079 11.2197 19.2197C11.079 19.3603 11 19.5511 11 19.75V20.442C9.01862 20.207 7.18299 19.2827 5.81443 17.8307C4.44586 16.3788 3.63154 14.4918 3.514 12.5H4.25C4.44891 12.5 4.63968 12.421 4.78033 12.2803C4.92098 12.1397 5 11.9489 5 11.75C5 11.5511 4.92098 11.3603 4.78033 11.2197C4.63968 11.079 4.44891 11 4.25 11Z" fill="#808080"/>
</svg>
