<svg width="24" height="24" viewBox="0 0 24 24" fill="none" xmlns="http://www.w3.org/2000/svg">
<path d="M3.25 11H2.05C2.2812 8.70501 3.29842 6.56045 4.92944 4.92944C6.56045 3.29842 8.70501 2.2812 11 2.05V3.25C11 3.44891 11.079 3.63968 11.2197 3.78033C11.3603 3.92098 11.5511 4 11.75 4C11.9489 4 12.1397 3.92098 12.2803 3.78033C12.421 3.63968 12.5 3.44891 12.5 3.25V2.013C17.457 2.257 21.465 6.11 21.951 11H20.751C20.5521 11 20.3613 11.079 20.2207 11.2197C20.08 11.3603 20.001 11.5511 20.001 11.75C20.001 11.9489 20.08 12.1397 20.2207 12.2803C20.3613 12.421 20.5521 12.5 20.751 12.5H21.988C21.8641 14.9763 20.8248 17.3183 19.0716 19.0716C17.3183 20.8248 14.9763 21.8641 12.5 21.988V20.75C12.5 20.5511 12.421 20.3603 12.2803 20.2197C12.1397 20.079 11.9489 20 11.75 20C11.5511 20 11.3603 20.079 11.2197 20.2197C11.079 20.3603 11 20.5511 11 20.75V21.951C6.11 21.465 2.257 17.457 2.013 12.501H3.25C3.44891 12.501 3.63968 12.422 3.78033 12.2813C3.92098 12.1407 4 11.9499 4 11.751C4 11.5521 3.92098 11.3613 3.78033 11.2207C3.63968 11.08 3.44891 11.001 3.25 11.001V11ZM14.654 11.526C14.4467 11.0424 14.146 10.6044 13.7692 10.2372C13.3924 9.87001 12.9468 9.58074 12.458 9.386L8.43 7.781C8.33914 7.74463 8.2396 7.73573 8.14372 7.75539C8.04784 7.77506 7.95985 7.82243 7.89064 7.89164C7.82143 7.96085 7.77406 8.04884 7.75439 8.14472C7.73473 8.2406 7.74363 8.34014 7.78 8.431L9.386 12.459C9.58085 12.9476 9.87017 13.393 10.2374 13.7696C10.6046 14.1463 11.0425 14.4468 11.526 14.654L15.851 16.508C15.9428 16.5474 16.0443 16.5584 16.1425 16.5396C16.2406 16.5208 16.3308 16.473 16.4015 16.4024C16.4722 16.3318 16.5202 16.2416 16.5392 16.1435C16.5581 16.0454 16.5473 15.9439 16.508 15.852L14.654 11.526Z" fill="#B794F4"/>
</svg>
