<svg width="24" height="24" viewBox="0 0 24 24" fill="none" xmlns="http://www.w3.org/2000/svg">
<path d="M12 3C12 2.46957 12.2107 1.96086 12.5858 1.58579C12.9609 1.21071 13.4696 1 14 1H21C21.5304 1 22.0391 1.21071 22.4142 1.58579C22.7893 1.96086 23 2.46957 23 3V9C23 9.53043 22.7893 10.0391 22.4142 10.4142C22.0391 10.7893 21.5304 11 21 11H14C13.4696 11 12.9609 10.7893 12.5858 10.4142C12.2107 10.0391 12 9.53043 12 9V3ZM14.5 4C14.3674 4 14.2402 4.05268 14.1464 4.14645C14.0527 4.24021 14 4.36739 14 4.5C14 4.63261 14.0527 4.75979 14.1464 4.85355C14.2402 4.94732 14.3674 5 14.5 5H20.5C20.6326 5 20.7598 4.94732 20.8536 4.85355C20.9473 4.75979 21 4.63261 21 4.5C21 4.36739 20.9473 4.24021 20.8536 4.14645C20.7598 4.05268 20.6326 4 20.5 4H14.5ZM14.5 7C14.3674 7 14.2402 7.05268 14.1464 7.14645C14.0527 7.24021 14 7.36739 14 7.5C14 7.63261 14.0527 7.75979 14.1464 7.85355C14.2402 7.94732 14.3674 8 14.5 8H20.5C20.6326 8 20.7598 7.94732 20.8536 7.85355C20.9473 7.75979 21 7.63261 21 7.5C21 7.36739 20.9473 7.24021 20.8536 7.14645C20.7598 7.05268 20.6326 7 20.5 7H14.5ZM5.25 3H11V4.5H5.25C4.78587 4.5 4.34075 4.68437 4.01256 5.01256C3.68437 5.34075 3.5 5.78587 3.5 6.25V14.75C3.5 15.716 4.284 16.5 5.25 16.5H7.499V20.25L12.514 16.5H18.75C19.2141 16.5 19.6592 16.3156 19.9874 15.9874C20.3156 15.6592 20.5 15.2141 20.5 14.75V12H21C21.35 12 21.687 11.94 22 11.83V14.75C22 15.1768 21.9159 15.5994 21.7526 15.9937C21.5893 16.388 21.3499 16.7463 21.0481 17.0481C20.7463 17.3499 20.388 17.5893 19.9937 17.7526C19.5994 17.9159 19.1768 18 18.75 18H13.012L8 21.75C7.81428 21.889 7.59356 21.9736 7.36251 21.9943C7.13146 22.015 6.89922 21.971 6.69176 21.8672C6.4843 21.7634 6.30981 21.6039 6.18782 21.4066C6.06582 21.2093 6.00114 20.982 6.001 20.75V18H5.251C4.82412 18.0001 4.4014 17.9162 4.00697 17.7529C3.61255 17.5896 3.25415 17.3503 2.95226 17.0485C2.65036 16.7466 2.41088 16.3883 2.24749 15.994C2.0841 15.5996 2 15.1769 2 14.75V6.25C2 5.38805 2.34241 4.5614 2.9519 3.9519C3.5614 3.34241 4.38805 3 5.25 3Z" fill="#808080"/>
</svg>
