<svg width="24" height="24" viewBox="0 0 24 24" fill="none" xmlns="http://www.w3.org/2000/svg">
<path d="M12 3C12 2.46957 12.2107 1.96086 12.5858 1.58579C12.9609 1.21071 13.4696 1 14 1H21C21.5304 1 22.0391 1.21071 22.4142 1.58579C22.7893 1.96086 23 2.46957 23 3V9C23 9.53043 22.7893 10.0391 22.4142 10.4142C22.0391 10.7893 21.5304 11 21 11H14C13.4696 11 12.9609 10.7893 12.5858 10.4142C12.2107 10.0391 12 9.53043 12 9V3ZM14.5 4C14.3674 4 14.2402 4.05268 14.1464 4.14645C14.0527 4.24021 14 4.36739 14 4.5C14 4.63261 14.0527 4.75979 14.1464 4.85355C14.2402 4.94732 14.3674 5 14.5 5H20.5C20.6326 5 20.7598 4.94732 20.8536 4.85355C20.9473 4.75979 21 4.63261 21 4.5C21 4.36739 20.9473 4.24021 20.8536 4.14645C20.7598 4.05268 20.6326 4 20.5 4H14.5ZM14.5 7C14.3674 7 14.2402 7.05268 14.1464 7.14645C14.0527 7.24021 14 7.36739 14 7.5C14 7.63261 14.0527 7.75979 14.1464 7.85355C14.2402 7.94732 14.3674 8 14.5 8H20.5C20.6326 8 20.7598 7.94732 20.8536 7.85355C20.9473 7.75979 21 7.63261 21 7.5C21 7.36739 20.9473 7.24021 20.8536 7.14645C20.7598 7.05268 20.6326 7 20.5 7H14.5ZM5.25 3H11V9C11 9.79565 11.3161 10.5587 11.8787 11.1213C12.4413 11.6839 13.2044 12 14 12H21C21.35 12 21.687 11.94 22 11.83V14.75C22 15.1768 21.9159 15.5994 21.7526 15.9937C21.5893 16.388 21.3499 16.7463 21.0481 17.0481C20.7463 17.3499 20.388 17.5893 19.9937 17.7526C19.5994 17.9159 19.1768 18 18.75 18H12.965L7.578 21.817C7.42841 21.923 7.25258 21.9858 7.06971 21.9985C6.88684 22.0113 6.70398 21.9736 6.54111 21.8895C6.37824 21.8053 6.24163 21.6781 6.14619 21.5216C6.05076 21.365 6.00019 21.1853 6 21.002V18H5.25C4.38805 18 3.5614 17.6576 2.9519 17.0481C2.34241 16.4386 2 15.612 2 14.75V6.25C2 5.38805 2.34241 4.5614 2.9519 3.9519C3.5614 3.34241 4.38805 3 5.25 3Z" fill="#B794F4"/>
</svg>
