<svg width="24" height="24" viewBox="0 0 24 24" fill="none" xmlns="http://www.w3.org/2000/svg">
<path d="M18.157 16.882L16.97 18.056C16.095 18.914 14.96 20.018 13.564 21.368C13.1444 21.7737 12.5836 22.0005 12 22.0005C11.4163 22.0005 10.8555 21.7737 10.436 21.368L6.94497 17.972C6.50597 17.541 6.13897 17.178 5.84297 16.882C4.62534 15.6643 3.79614 14.1128 3.46023 12.4239C3.12432 10.7349 3.29678 8.98422 3.95581 7.39326C4.61484 5.8023 5.73084 4.44249 7.16269 3.48578C8.59453 2.52907 10.2779 2.01843 12 2.01843C13.722 2.01843 15.4054 2.52907 16.8373 3.48578C18.2691 4.44249 19.3851 5.8023 20.0441 7.39326C20.7032 8.98422 20.8756 10.7349 20.5397 12.4239C20.2038 14.1128 19.3746 15.6643 18.157 16.882ZM14.5 11C14.5 10.3369 14.2366 9.70106 13.7677 9.23222C13.2989 8.76338 12.663 8.49999 12 8.49999C11.3369 8.49999 10.701 8.76338 10.2322 9.23222C9.76336 9.70106 9.49997 10.3369 9.49997 11C9.49997 11.663 9.76336 12.2989 10.2322 12.7678C10.701 13.2366 11.3369 13.5 12 13.5C12.663 13.5 13.2989 13.2366 13.7677 12.7678C14.2366 12.2989 14.5 11.663 14.5 11Z" fill="#808080"/>
</svg>
