<svg width="24" height="24" viewBox="0 0 24 24" fill="none" xmlns="http://www.w3.org/2000/svg">
<path d="M4.53003 12.97C4.38785 12.8375 4.19981 12.7654 4.00551 12.7689C3.81121 12.7723 3.62582 12.851 3.48841 12.9884C3.35099 13.1258 3.27228 13.3112 3.26885 13.5055C3.26543 13.6998 3.33755 13.8879 3.47003 14.03L7.97003 18.53C8.11065 18.6705 8.30128 18.7494 8.50003 18.7494C8.69878 18.7494 8.8894 18.6705 9.03003 18.53L20.03 7.53003C20.1625 7.38785 20.2346 7.19981 20.2312 7.00551C20.2278 6.81121 20.1491 6.62582 20.0117 6.48841C19.8742 6.35099 19.6889 6.27228 19.4946 6.26885C19.3003 6.26543 19.1122 6.33755 18.97 6.47003L8.50003 16.94L4.53003 12.97Z" fill="white"/>
</svg>
