<svg width="24" height="24" viewBox="0 0 24 24" fill="none" xmlns="http://www.w3.org/2000/svg">
<g clip-path="url(#clip0_476_6)">
<path d="M9.09767 9.3408C8.94906 9.20222 8.75149 9.12835 8.54842 9.13544C8.34535 9.14253 8.15341 9.23 8.01483 9.37861C7.87625 9.52722 7.80238 9.72479 7.80947 9.92786C7.81657 10.1309 7.90404 10.3229 8.05264 10.4614L11.8326 13.9863C11.9069 14.0556 11.9506 14.1516 11.9542 14.2531C11.9577 14.3546 11.9208 14.4534 11.8515 14.5277C11.7822 14.602 11.6862 14.6458 11.5847 14.6493C11.4832 14.6529 11.3844 14.6159 11.3101 14.5466L8.50902 11.9346C8.36041 11.796 8.16284 11.7222 7.95977 11.7292C7.7567 11.7363 7.56476 11.8238 7.42618 11.9724C7.28761 12.121 7.21374 12.3186 7.22083 12.5217C7.22792 12.7247 7.31539 12.9167 7.464 13.0553L12.3696 17.6298C13.5906 18.7684 15.5059 19.3309 16.6123 19.5812C17.438 19.7686 18.2554 19.4582 18.8004 18.8738L19.9332 17.659C20.2486 17.3207 20.4636 16.9014 20.554 16.4478C20.6444 15.9943 20.6068 15.5245 20.4452 15.0912L20.3657 14.8777C20.114 14.2021 19.9481 13.4977 19.8718 12.7808L19.5977 10.2079L19.7877 8.08987C19.7956 8.00244 19.7834 7.91435 19.7519 7.83238C19.7205 7.75041 19.6707 7.67673 19.6064 7.617C19.3346 7.36358 18.9971 7.32116 18.7031 7.39485C18.4414 7.46091 18.2105 7.61642 18.0268 7.77191C17.6524 8.08909 17.2911 8.56301 17.0103 9.01244C16.8162 9.3298 16.6725 9.6753 16.5842 10.0367L12.2327 5.97885C12.0841 5.84027 11.8866 5.7664 11.6835 5.77349C11.4804 5.78058 11.2885 5.86805 11.1499 6.01666C11.0113 6.16527 10.9375 6.36284 10.9445 6.56591C10.9516 6.76898 11.0391 6.96092 11.1877 7.0995L14.6881 10.3636C14.7624 10.4329 14.8061 10.5289 14.8097 10.6304C14.8132 10.732 14.7763 10.8307 14.707 10.905C14.6377 10.9794 14.5417 11.0231 14.4402 11.0266C14.3386 11.0302 14.2399 10.9932 14.1656 10.924L9.96312 7.00512C9.81451 6.86654 9.61694 6.79267 9.41387 6.79976C9.21079 6.80685 9.01886 6.89432 8.88028 7.04293C8.7417 7.19154 8.66783 7.38911 8.67492 7.59218C8.68201 7.79525 8.76948 7.98719 8.91809 8.12577L13.1205 12.0446C13.1948 12.1139 13.2386 12.2099 13.2421 12.3114C13.2457 12.4129 13.2087 12.5117 13.1394 12.586C13.0701 12.6603 12.9742 12.7041 12.8726 12.7076C12.7711 12.7112 12.6723 12.6742 12.598 12.6049L9.09767 9.3408Z" fill="#9C39FF"/>
<path d="M5.93411 10.4608C5.7831 10.3248 5.58427 10.2544 5.38136 10.2651C5.17844 10.2757 4.98806 10.3665 4.85209 10.5175C4.71613 10.6685 4.64572 10.8673 4.65635 11.0703C4.66699 11.2732 4.7578 11.4636 4.9088 11.5995L8.75083 15.0589C8.82634 15.1269 8.87174 15.2221 8.87706 15.3235C8.88237 15.425 8.84717 15.5244 8.77919 15.5999C8.71121 15.6754 8.61601 15.7208 8.51456 15.7261C8.4131 15.7314 8.31368 15.6962 8.23818 15.6283L5.39139 13.065C5.24038 12.929 5.04155 12.8586 4.83864 12.8693C4.63572 12.8799 4.44534 12.9707 4.30937 13.1217C4.17341 13.2727 4.103 13.4715 4.11363 13.6745C4.12427 13.8774 4.21508 14.0677 4.36608 14.2037L9.35139 18.6925C10.5926 19.8101 12.518 20.3396 13.6286 20.5705C14.4568 20.743 15.2693 20.4189 15.804 19.825L16.9154 18.5907C17.2249 18.247 17.4325 17.8239 17.515 17.3688C17.5975 16.9138 17.5517 16.4448 17.3826 16.0143L17.2987 15.8017C17.0347 15.1309 16.8563 14.4291 16.7678 13.7133L16.4488 11.1455L16.6017 9.02344C16.608 8.93619 16.5942 8.84868 16.5614 8.76757C16.5287 8.68646 16.4779 8.61389 16.4128 8.5554C16.1367 8.30677 15.7984 8.27024 15.5058 8.34905C15.2459 8.42018 15.0177 8.57969 14.8362 8.73785C14.4674 9.06152 14.1145 9.54167 13.8415 9.99594C13.6529 10.3164 13.515 10.6642 13.4328 11.0269L9.01002 7.04465C8.85902 6.90868 8.66019 6.83827 8.45727 6.84891C8.25436 6.85954 8.06398 6.95035 7.92801 7.10135C7.79205 7.25236 7.72164 7.45119 7.73227 7.6541C7.74291 7.85702 7.83371 8.0474 7.98472 8.18336L11.5432 11.3874C11.6187 11.4554 11.6641 11.5506 11.6694 11.6521C11.6748 11.7535 11.6395 11.853 11.5716 11.9285C11.5036 12.004 11.4084 12.0494 11.3069 12.0547C11.2055 12.06 11.1061 12.0248 11.0306 11.9568L6.75866 8.11037C6.60765 7.9744 6.40882 7.904 6.20591 7.91463C6.00299 7.92526 5.81261 8.01607 5.67665 8.16707C5.54068 8.31808 5.47027 8.51691 5.48091 8.71982C5.49154 8.92274 5.58235 9.11312 5.73335 9.24909L10.0053 13.0955C10.0808 13.1635 10.1262 13.2587 10.1315 13.3602C10.1368 13.4616 10.1016 13.561 10.0336 13.6365C9.96562 13.712 9.87043 13.7574 9.76898 13.7628C9.66752 13.7681 9.5681 13.7329 9.4926 13.6649L5.93411 10.4608Z" fill="#B794F4"/>
<path d="M8.87443 4.61016L8.07883 2.86721L9.2978 2.52203L8.87443 4.61016Z" fill="#B794F4"/>
<path d="M13.0507 5.13217L13.2796 3.04406L14.3998 3.63581L13.0507 5.13217Z" fill="#B76FFF"/>
<path d="M5.4249 16.8829L5.29954 19.2785L4.18102 18.6835L5.4249 16.8829Z" fill="#B794F4"/>
<path d="M5.22026 5.65416L3.41486 4.68444L4.20838 3.69681L5.22026 5.65416Z" fill="#B76FFF"/>
<path d="M3.13216 9.31143L1.0459 9.53666L1.04404 8.2674L3.13216 9.31143Z" fill="#B794F4"/>
<path d="M3.08808 13.4846L1.51627 15.2967L0.999986 14.1398L3.08808 13.4846Z" fill="#B76FFF"/>
</g>
<defs>
<clipPath id="clip0_476_6">
<rect width="24" height="24" fill="white"/>
</clipPath>
</defs>
</svg>
