<svg width="24" height="24" viewBox="0 0 24 24" fill="none" xmlns="http://www.w3.org/2000/svg">
<path d="M12.82 5.57998L12 6.40198L11.176 5.57798C10.1679 4.57003 8.8007 4.00382 7.37515 4.00391C5.94959 4.00401 4.58245 4.5704 3.5745 5.57848C2.56654 6.58657 2.00033 7.95378 2.00043 9.37934C2.00052 10.8049 2.56691 12.172 3.575 13.18L11.47 21.075C11.6106 21.2154 11.8012 21.2943 12 21.2943C12.1988 21.2943 12.3894 21.2154 12.53 21.075L20.432 13.178C21.4389 12.1698 22.0044 10.8031 22.0042 9.37828C22.004 7.95341 21.4382 6.58689 20.431 5.57898C19.9314 5.07903 19.3381 4.68242 18.6852 4.41182C18.0322 4.14123 17.3323 4.00195 16.6255 4.00195C15.9187 4.00195 15.2188 4.14123 14.5658 4.41182C13.9129 4.68242 13.3196 5.08003 12.82 5.57998Z" fill="#B794F4"/>
</svg>
