<svg width="24" height="24" viewBox="0 0 24 24" fill="none" xmlns="http://www.w3.org/2000/svg">
<path d="M8.75604 9.03105C8.6137 8.89832 8.42447 8.82757 8.22996 8.83436C8.03546 8.84116 7.85162 8.92494 7.71889 9.06727C7.58616 9.20961 7.51541 9.39884 7.5222 9.59335C7.52899 9.78785 7.61277 9.97169 7.75511 10.1044L11.3756 13.4806C11.4467 13.5469 11.4886 13.6388 11.492 13.7361C11.4954 13.8333 11.46 13.928 11.3937 13.9991C11.3273 14.0703 11.2354 14.1122 11.1381 14.1156C11.0409 14.119 10.9463 14.0836 10.8751 14.0172L8.19223 11.5154C8.04989 11.3827 7.86066 11.3119 7.66615 11.3187C7.47165 11.3255 7.28781 11.4093 7.15508 11.5516C7.02235 11.694 6.9516 11.8832 6.95839 12.0777C6.96518 12.2722 7.04896 12.456 7.1913 12.5888L11.89 16.9703C13.0594 18.0609 14.8939 18.5996 15.9536 18.8393C16.7444 19.0189 17.5274 18.7215 18.0494 18.1618L19.1344 16.9983C19.4365 16.6743 19.6423 16.2726 19.729 15.8382C19.8156 15.4038 19.7795 14.9538 19.6248 14.5388L19.5486 14.3343C19.3075 13.6872 19.1486 13.0125 19.0756 12.3259L18.813 9.86157L18.995 7.83291C19.0026 7.74916 18.9909 7.6648 18.9608 7.58629C18.9306 7.50778 18.883 7.43721 18.8213 7.37999C18.561 7.13727 18.2377 7.09664 17.9562 7.16722C17.7055 7.23049 17.4844 7.37943 17.3084 7.52836C16.9498 7.83216 16.6038 8.28608 16.3348 8.71655C16.1489 9.02051 16.0112 9.35145 15.9267 9.69757L11.7588 5.81096C11.6165 5.67823 11.4273 5.60748 11.2327 5.61427C11.0382 5.62106 10.8544 5.70484 10.7217 5.84718C10.5889 5.98951 10.5182 6.17875 10.525 6.37325C10.5318 6.56775 10.6156 6.75159 10.7579 6.88432L14.1106 10.0107C14.1817 10.0771 14.2236 10.169 14.227 10.2663C14.2304 10.3635 14.195 10.4581 14.1287 10.5293C14.0623 10.6005 13.9704 10.6424 13.8731 10.6458C13.7759 10.6492 13.6813 10.6138 13.6101 10.5474L9.58497 6.79393C9.44263 6.66119 9.2534 6.59044 9.05889 6.59723C8.86439 6.60403 8.68055 6.68781 8.54782 6.83014C8.41509 6.97248 8.34434 7.16171 8.35113 7.35622C8.35792 7.55072 8.4417 7.73456 8.58404 7.86729L12.6092 11.6208C12.6803 11.6871 12.7222 11.7791 12.7256 11.8763C12.729 11.9736 12.6936 12.0682 12.6273 12.1393C12.5609 12.2105 12.469 12.2524 12.3717 12.2558C12.2745 12.2592 12.1799 12.2238 12.1087 12.1575L8.75604 9.03105Z" fill="#808080"/>
<path d="M5.68375 10.1037C5.53912 9.97349 5.34868 9.90605 5.15432 9.91624C4.95997 9.92642 4.77762 10.0134 4.64739 10.158C4.51716 10.3027 4.44973 10.4931 4.45991 10.6875C4.4701 10.8818 4.55707 11.0642 4.70171 11.1944L8.38163 14.5078C8.45394 14.5729 8.49743 14.6641 8.50252 14.7613C8.50761 14.8584 8.4739 14.9537 8.40878 15.026C8.34367 15.0983 8.25249 15.1418 8.15532 15.1469C8.05814 15.152 7.96292 15.1183 7.8906 15.0531L5.16393 12.598C5.0193 12.4678 4.82886 12.4004 4.6345 12.4105C4.44015 12.4207 4.2578 12.5077 4.12757 12.6523C3.99735 12.797 3.92991 12.9874 3.94009 13.1818C3.95028 13.3761 4.03725 13.5585 4.18189 13.6887L8.95684 17.9881C10.1457 19.0585 11.9898 19.5656 13.0536 19.7868C13.8469 19.9521 14.6251 19.6416 15.1372 19.0728L16.2017 17.8905C16.4981 17.5614 16.697 17.1561 16.776 16.7203C16.855 16.2844 16.8111 15.8352 16.6492 15.4229L16.5689 15.2193C16.3159 14.5768 16.1451 13.9045 16.0603 13.2189L15.7547 10.7596L15.9013 8.72701C15.9072 8.64344 15.894 8.55962 15.8627 8.48193C15.8313 8.40425 15.7826 8.33474 15.7203 8.27872C15.4558 8.04057 15.1319 8.00559 14.8516 8.08107C14.6026 8.1492 14.3841 8.30198 14.2102 8.45347C13.857 8.76348 13.5189 9.22337 13.2575 9.65847C13.0768 9.96545 12.9448 10.2986 12.866 10.646L8.62988 6.83171C8.48525 6.70148 8.29481 6.63404 8.10045 6.64423C7.9061 6.65441 7.72375 6.74139 7.59352 6.88602C7.4633 7.03065 7.39586 7.22109 7.40604 7.41545C7.41623 7.6098 7.5032 7.79215 7.64784 7.92238L11.0562 10.9913C11.1285 11.0564 11.172 11.1476 11.1771 11.2447C11.1822 11.3419 11.1484 11.4371 11.0833 11.5094C11.0182 11.5818 10.927 11.6252 10.8299 11.6303C10.7327 11.6354 10.6375 11.6017 10.5652 11.5366L6.47351 7.85246C6.32888 7.72224 6.13844 7.6548 5.94408 7.66498C5.74973 7.67517 5.56738 7.76214 5.43715 7.90678C5.30693 8.05141 5.23949 8.24185 5.24967 8.4362C5.25986 8.63056 5.34683 8.81291 5.49147 8.94313L9.58311 12.6273C9.65543 12.6924 9.69892 12.7836 9.70401 12.8807C9.7091 12.9779 9.67538 13.0731 9.61027 13.1454C9.54516 13.2178 9.45398 13.2613 9.35681 13.2663C9.25963 13.2714 9.16441 13.2377 9.09209 13.1726L5.68375 10.1037Z" fill="#CECECE"/>
</svg>
