<svg width="24" height="24" viewBox="0 0 24 24" fill="none" xmlns="http://www.w3.org/2000/svg">
<path d="M8.29403 14L6.52703 21.068C6.34003 21.814 7.26303 22.324 7.79603 21.769L19.79 9.27C19.892 9.16402 19.9606 9.03041 19.9872 8.88577C20.0138 8.74114 19.9973 8.59187 19.9398 8.45653C19.8822 8.32119 19.7862 8.20576 19.6635 8.12459C19.5409 8.04342 19.3971 8.00009 19.25 8H14.79L16.462 2.987C16.4996 2.87423 16.5098 2.75415 16.4918 2.63665C16.4739 2.51916 16.4283 2.40762 16.3587 2.31122C16.2892 2.21482 16.1977 2.13634 16.0919 2.08222C15.9861 2.02811 15.8689 1.99993 15.75 2H8.75003C8.58706 2.00003 8.42855 2.05314 8.29846 2.1513C8.16837 2.24945 8.07379 2.3873 8.02903 2.544L5.02903 13.044C4.99715 13.1556 4.99161 13.2731 5.01284 13.3872C5.03407 13.5013 5.0815 13.6089 5.15139 13.7016C5.22128 13.7943 5.31172 13.8695 5.4156 13.9212C5.51948 13.973 5.63396 14 5.75003 14H8.29403Z" fill="#B794F4"/>
</svg>
