<svg width="24" height="24" viewBox="0 0 24 24" fill="none" xmlns="http://www.w3.org/2000/svg">
<path d="M6.50201 3.00299C5.57376 3.00299 4.68352 3.37174 4.02714 4.02812C3.37076 4.68449 3.00201 5.57473 3.00201 6.50299V12.503C3.00201 13.4312 3.37076 14.3215 4.02714 14.9779C4.68352 15.6342 5.57376 16.003 6.50201 16.003H7.00001V14.003H6.50301C6.10519 14.003 5.72366 13.845 5.44235 13.5637C5.16105 13.2823 5.00301 12.9008 5.00301 12.503V6.50299C5.00301 6.10517 5.16105 5.72364 5.44235 5.44233C5.72366 5.16103 6.10519 5.00299 6.50301 5.00299H12.503C12.9008 5.00299 13.2824 5.16103 13.5637 5.44233C13.845 5.72364 14.003 6.10517 14.003 6.50299V12.503C14.003 12.9008 13.845 13.2823 13.5637 13.5637C13.2824 13.845 12.9008 14.003 12.503 14.003H10.997V16.003H12.503C13.4313 16.003 14.3215 15.6342 14.9779 14.9779C15.6343 14.3215 16.003 13.4312 16.003 12.503V6.50299C16.003 5.57473 15.6343 4.68449 14.9779 4.02812C14.3215 3.37174 13.4313 3.00299 12.503 3.00299H6.50201Z" fill="#808080"/>
<path d="M10 11.5C10 11.1022 10.158 10.7206 10.4393 10.4393C10.7206 10.158 11.1022 10 11.5 10H12.999V8H11.5C10.5717 8 9.6815 8.36875 9.02513 9.02513C8.36875 9.6815 8 10.5717 8 11.5V17.5C8 18.4283 8.36875 19.3185 9.02513 19.9749C9.6815 20.6313 10.5717 21 11.5 21H17.5C18.4283 21 19.3185 20.6313 19.9749 19.9749C20.6313 19.3185 21 18.4283 21 17.5V11.5C21 10.5717 20.6313 9.6815 19.9749 9.02513C19.3185 8.36875 18.4283 8 17.5 8H17.005V10H17.5C17.8978 10 18.2794 10.158 18.5607 10.4393C18.842 10.7206 19 11.1022 19 11.5V17.5C19 17.8978 18.842 18.2794 18.5607 18.5607C18.2794 18.842 17.8978 19 17.5 19H11.5C11.1022 19 10.7206 18.842 10.4393 18.5607C10.158 18.2794 10 17.8978 10 17.5V11.5Z" fill="#808080"/>
</svg>
