<svg width="26" height="26" viewBox="0 0 26 26" fill="none" xmlns="http://www.w3.org/2000/svg">
<path d="M13.5771 14.7159C13.7705 14.3218 14.1221 13.8281 14.7402 13.2307C15.04 12.9469 15.4005 12.634 15.8395 12.3044C15.9126 12.2515 15.9857 12.1986 16.0589 12.1457C16.132 12.0928 16.2051 12.0398 16.2843 11.987C19.1168 10.0071 21.325 10.0095 23.4993 7.13278C25.0699 5.0585 25.4344 2.44525 25.1375 0.145642C25.1202 0.0971659 25.097 0.0485833 25.0738 0C25.0738 0 24.8759 0.652952 24.2004 1.43005C23.9795 1.68514 22.6091 2.97401 20.5125 3.46734C18.3796 3.97207 16.5603 5.47591 16.0569 6.05127C15.5656 6.6148 14.2099 7.75939 13.5852 11.8375C13.5847 11.8616 13.5783 11.8856 13.5719 11.9095C13.5649 11.9636 13.5578 12.0237 13.5448 12.0837C13.4623 12.6724 13.4928 13.6847 13.5711 14.7158L13.5771 14.7159Z" fill="url(#paint0_linear_494_2)"/>
<path d="M13.577 14.7157C13.6806 16.0183 13.8739 17.3586 14.0327 17.9094C14.0327 17.9094 14.0327 17.9094 14.0326 17.9154C14.0382 17.9396 14.0497 17.9699 14.0553 17.9941C14.0553 17.9941 14.0551 18.0061 14.055 18.0121C14.0548 18.0242 14.0851 18.0378 14.0909 18.0499C14.1658 17.5514 14.5293 16.6956 15.9522 15.4919C16.1293 15.3444 16.3247 15.1853 16.532 15.0263C16.6784 14.9144 16.8246 14.8086 16.9709 14.7027C17.7384 14.1681 18.4552 13.7772 19.1412 13.4338C20.9926 12.5087 22.597 11.9465 24.1859 9.84847C26.4341 6.87671 26.2163 2.80798 25.1134 0.138977C25.4105 2.43257 25.046 5.04582 23.4752 7.12611C21.295 10.0027 19.0927 10.0004 16.2602 11.9804C16.1871 12.0333 16.1139 12.0862 16.0348 12.139C15.9617 12.1919 15.8886 12.2449 15.8154 12.2978C15.3764 12.6273 15.016 12.9402 14.7162 13.2241C14.0921 13.8154 13.7704 14.29 13.577 14.6841V14.7157Z" fill="url(#paint1_linear_494_2)"/>
<path d="M14.0671 17.9919C14.671 19.9356 15.0447 21.6222 16.7757 23.4592C19.3101 26.1532 23.1927 26.4077 25.8486 25.5869C25.8971 25.5697 25.9515 25.5585 25.9999 25.5414C25.9999 25.5414 25.409 25.26 24.749 24.4597C24.5371 24.2029 23.4876 22.6188 23.2678 20.3748C23.0489 18.0946 21.8518 16.0142 21.3686 15.4276C21.0562 15.0488 20.5527 14.2451 19.1592 13.4138C18.4733 13.7571 17.7565 14.148 16.989 14.6826C16.8428 14.7825 16.6966 14.8883 16.5501 15.0062C16.3367 15.1651 16.1414 15.3242 15.9703 15.4718C14.5413 16.6754 14.1592 17.5419 14.0904 18.0345C14.0906 18.0225 14.0789 18.0042 14.0731 17.992L14.0671 17.9919Z" fill="url(#paint2_linear_494_2)"/>
<path d="M12.3894 14.8352C12.196 14.4411 11.8444 13.9474 11.2263 13.35C10.9265 13.0661 10.566 12.7533 10.127 12.4237C10.0539 12.3708 9.98076 12.3179 9.90764 12.265C9.83452 12.212 9.76137 12.1591 9.68222 12.1063C6.8497 10.1263 4.64143 10.1288 2.46719 7.25204C0.896632 5.17776 0.532143 2.5645 0.829 0.264904C0.846204 0.216428 0.869426 0.167845 0.892648 0.119263C0.892648 0.119263 1.09057 0.772216 1.76601 1.54931C1.98708 1.8044 3.35742 3.09329 5.45399 3.58659C7.58685 4.09133 9.40621 5.59519 9.90966 6.17054C10.4009 6.73405 11.7566 7.87866 12.3814 11.9568C12.3818 11.9808 12.3882 12.0048 12.3946 12.0288C12.4016 12.0829 12.4087 12.143 12.4218 12.203C12.5042 12.7917 12.4737 13.8039 12.3954 14.8351L12.3894 14.8352Z" fill="url(#paint3_linear_494_2)"/>
<path d="M12.4205 14.6948C12.3168 15.9974 12.1236 17.3377 11.9647 17.8885C11.9647 17.8885 11.9647 17.8885 11.9648 17.8945C11.9592 17.9187 11.9477 17.949 11.9421 17.9732C11.9421 17.9732 11.9423 17.9852 11.9424 17.9913C11.9426 18.0033 11.9123 18.0169 11.9065 18.0291C11.8316 17.5305 11.4682 16.6747 10.0452 15.471C9.86809 15.3236 9.67277 15.1644 9.46542 15.0054C9.31905 14.8935 9.1728 14.7877 9.02654 14.6818C8.25904 14.1473 7.54219 13.7563 6.85627 13.413C5.00488 12.4878 3.40052 11.9257 1.8115 9.82761C-0.43661 6.85582 -0.218747 2.78709 0.883989 0.118103C0.587028 2.4117 0.951516 5.02493 2.52219 7.10524C4.70244 9.98186 6.90469 9.97952 9.73722 11.9595C9.81034 12.0124 9.88349 12.0653 9.96262 12.1182C10.0358 12.1711 10.1089 12.224 10.182 12.2769C10.621 12.6065 10.9815 12.9194 11.2813 13.2032C11.9053 13.7945 12.2271 14.2219 12.4205 14.6159V14.6948Z" fill="url(#paint4_linear_494_2)"/>
<path d="M11.9328 17.9767C11.3289 19.9204 10.9552 21.6071 9.22415 23.4439C6.68976 26.1379 2.8071 26.3924 0.151224 25.5717C0.102785 25.5544 0.048437 25.5434 0 25.5261C0 25.5261 0.590796 25.2448 1.25076 24.4443C1.46291 24.1878 2.51235 22.6037 2.73196 20.3597C2.95092 18.0794 4.14817 15.999 4.63134 15.4124C4.94365 15.0336 5.44712 14.2299 6.84064 13.3986C7.52657 13.7419 8.24342 14.1328 9.01091 14.6674C9.15708 14.7673 9.30332 14.8731 9.44979 14.991C9.66317 15.1499 9.85849 15.309 10.0295 15.4566C11.4586 16.6602 11.8407 17.5267 11.9095 18.0193C11.9093 18.0073 11.921 17.989 11.9268 17.9768L11.9328 17.9767Z" fill="url(#paint5_linear_494_2)"/>
<defs>
<linearGradient id="paint0_linear_494_2" x1="14.3852" y1="11.5082" x2="27.0159" y2="0.272853" gradientUnits="userSpaceOnUse">
<stop stop-color="#B871FF"/>
<stop offset="0.21" stop-color="#B871FF"/>
<stop offset="0.43" stop-color="#9C39FF"/>
<stop offset="0.93" stop-color="#8019E8"/>
</linearGradient>
<linearGradient id="paint1_linear_494_2" x1="15.7904" y1="13.7005" x2="28.4146" y2="1.51356" gradientUnits="userSpaceOnUse">
<stop stop-color="#D4AAFF"/>
<stop offset="0.93" stop-color="#9C39FF"/>
</linearGradient>
<linearGradient id="paint2_linear_494_2" x1="24.4732" y1="25.1684" x2="14.6419" y2="13.8617" gradientUnits="userSpaceOnUse">
<stop stop-color="#B871FF"/>
<stop offset="0.125" stop-color="#B871FF"/>
<stop offset="0.3" stop-color="#9C39FF"/>
<stop offset="0.46" stop-color="#8019E8"/>
<stop offset="0.54" stop-color="#8019E8"/>
<stop offset="0.7" stop-color="#6300C6"/>
<stop offset="0.83" stop-color="#6300C6"/>
</linearGradient>
<linearGradient id="paint3_linear_494_2" x1="11.5813" y1="11.6275" x2="-1.04942" y2="0.392104" gradientUnits="userSpaceOnUse">
<stop stop-color="#B871FF"/>
<stop offset="0.21" stop-color="#B871FF"/>
<stop offset="0.43" stop-color="#9C39FF"/>
<stop offset="0.93" stop-color="#8019E8"/>
</linearGradient>
<linearGradient id="paint4_linear_494_2" x1="10.2078" y1="13.6796" x2="-2.41626" y2="1.49268" gradientUnits="userSpaceOnUse">
<stop stop-color="#D4AAFF"/>
<stop offset="0.93" stop-color="#9C39FF"/>
</linearGradient>
<linearGradient id="paint5_linear_494_2" x1="1.95786" y1="25.1686" x2="11.3633" y2="13.8511" gradientUnits="userSpaceOnUse">
<stop stop-color="#B871FF"/>
<stop offset="0.119792" stop-color="#B871FF"/>
<stop offset="0.3" stop-color="#9C39FF"/>
<stop offset="0.46" stop-color="#8019E8"/>
<stop offset="0.54" stop-color="#8019E8"/>
<stop offset="0.7" stop-color="#6300C6"/>
<stop offset="0.83" stop-color="#6300C6"/>
</linearGradient>
</defs>
</svg>
