<svg width="1500" height="500" viewBox="0 0 1500 500" fill="none" xmlns="http://www.w3.org/2000/svg">
<path d="M225.581 269.238C227.954 264.09 232.268 257.641 239.852 249.836C243.53 246.129 247.953 242.041 253.339 237.736C254.236 237.045 255.133 236.354 256.031 235.662C256.928 234.971 257.825 234.28 258.796 233.59C293.549 207.725 320.642 207.757 347.319 170.177C366.589 143.081 371.061 108.943 367.419 78.9026C367.206 78.2693 366.921 77.6347 366.637 77C366.637 77 364.208 85.5297 355.921 95.6811C353.21 99.0134 336.396 115.85 310.673 122.295C284.505 128.888 262.183 148.533 256.006 156.049C249.979 163.411 233.345 178.363 225.68 231.636C225.675 231.951 225.596 232.264 225.517 232.577C225.432 233.284 225.345 234.069 225.185 234.853C224.173 242.543 224.547 255.766 225.507 269.237L225.581 269.238Z" fill="url(#paint0_linear_536_45)"/>
<path d="M225.58 269.233C226.852 286.248 229.223 303.757 231.172 310.952C231.172 310.952 231.172 310.952 231.171 311.031C231.239 311.347 231.381 311.743 231.449 312.059C231.449 312.059 231.446 312.216 231.445 312.294C231.443 312.452 231.815 312.63 231.886 312.788C232.805 306.276 237.264 295.096 254.723 279.372C256.895 277.446 259.292 275.366 261.836 273.29C263.632 271.828 265.426 270.445 267.221 269.063C276.637 262.079 285.432 256.972 293.848 252.487C316.564 240.401 336.248 233.058 355.743 205.651C383.327 166.83 380.654 113.679 367.123 78.8129C370.768 108.775 366.296 142.912 347.023 170.088C320.274 207.666 293.254 207.635 258.501 233.5C257.604 234.191 256.707 234.883 255.736 235.573C254.838 236.264 253.941 236.955 253.044 237.646C247.658 241.952 243.235 246.039 239.557 249.747C231.9 257.471 227.953 263.671 225.58 268.819V269.233Z" fill="url(#paint1_linear_536_45)"/>
<path d="M231.594 312.032C239.003 337.422 243.589 359.455 264.827 383.452C295.922 418.644 343.558 421.969 376.144 411.246C376.738 411.022 377.405 410.876 378 410.652C378 410.652 370.75 406.976 362.653 396.521C360.052 393.167 347.175 372.473 344.48 343.16C341.794 313.373 327.106 286.196 321.177 278.533C317.345 273.584 311.167 263.086 294.07 252.226C285.654 256.711 276.859 261.818 267.443 268.802C265.65 270.106 263.855 271.488 262.058 273.028C259.44 275.104 257.044 277.183 254.945 279.111C237.412 294.833 232.723 306.153 231.88 312.588C231.882 312.43 231.738 312.192 231.667 312.033L231.594 312.032Z" fill="url(#paint2_linear_536_45)"/>
<path d="M211.01 270.795C208.637 265.647 204.323 259.198 196.738 251.394C193.06 247.686 188.637 243.599 183.252 239.294C182.354 238.602 181.457 237.911 180.56 237.22C179.663 236.528 178.765 235.837 177.794 235.147C143.041 209.282 115.948 209.314 89.2713 171.735C70.0017 144.638 65.5297 110.5 69.1719 80.4599C69.383 79.8267 69.6679 79.192 69.9528 78.5574C69.9528 78.5574 72.3812 87.0871 80.6684 97.2385C83.3807 100.571 100.194 117.408 125.917 123.852C152.086 130.446 174.408 150.091 180.585 157.607C186.611 164.968 203.246 179.921 210.91 233.194C210.915 233.508 210.994 233.821 211.073 234.135C211.159 234.841 211.245 235.626 211.406 236.41C212.418 244.101 212.044 257.324 211.083 270.794L211.01 270.795Z" fill="url(#paint3_linear_536_45)"/>
<path d="M211.39 268.964C210.119 285.98 207.748 303.488 205.798 310.683C205.798 310.683 205.798 310.683 205.8 310.762C205.731 311.078 205.59 311.474 205.521 311.79C205.521 311.79 205.524 311.947 205.525 312.026C205.528 312.183 205.156 312.361 205.084 312.52C204.165 306.007 199.706 294.827 182.247 279.103C180.075 277.177 177.678 275.097 175.134 273.021C173.338 271.559 171.544 270.177 169.749 268.794C160.333 261.81 151.538 256.703 143.122 252.218C120.407 240.133 100.723 232.789 81.2264 205.382C53.6439 166.561 56.3169 113.41 69.8466 78.5439C66.2032 108.506 70.6752 142.643 89.9461 169.819C116.696 207.397 143.716 207.366 178.469 233.231C179.366 233.922 180.263 234.614 181.234 235.304C182.132 235.995 183.029 236.686 183.926 237.378C189.312 241.683 193.735 245.77 197.413 249.478C205.07 257.202 209.017 262.785 211.39 267.933V268.964Z" fill="url(#paint4_linear_536_45)"/>
<path d="M205.406 311.833C197.996 337.223 193.411 359.258 172.173 383.252C141.078 418.444 93.4409 421.769 60.8554 411.048C60.2611 410.822 59.5943 410.678 59 410.452C59 410.452 66.2486 406.778 74.3459 396.321C76.9487 392.969 89.8245 372.276 92.519 342.962C95.2054 313.175 109.895 285.997 115.823 278.334C119.655 273.386 125.832 262.887 142.929 252.027C151.345 256.512 160.14 261.619 169.557 268.603C171.35 269.907 173.144 271.29 174.941 272.829C177.559 274.905 179.956 276.984 182.054 278.912C199.587 294.634 204.276 305.954 205.12 312.389C205.117 312.232 205.261 311.993 205.332 311.834L205.406 311.833Z" fill="url(#paint5_linear_536_45)"/>
<path d="M476.634 358.036C461.452 358.036 448.295 354.696 437.163 348.017C426.03 341.337 417.393 331.992 411.254 319.982C405.181 307.972 402.145 293.938 402.145 277.88C402.145 261.822 405.181 247.754 411.254 235.676C417.393 223.599 426.03 214.221 437.163 207.541C448.295 200.861 461.452 197.521 476.634 197.521C491.815 197.521 504.972 200.861 516.104 207.541C527.237 214.221 535.84 223.599 541.912 235.676C548.052 247.754 551.122 261.822 551.122 277.88C551.122 293.938 548.052 307.972 541.912 319.982C535.84 331.992 527.237 341.337 516.104 348.017C504.972 354.696 491.815 358.036 476.634 358.036ZM476.836 328.686C485.067 328.686 491.95 326.426 497.482 321.905C503.015 317.317 507.131 311.177 509.83 303.485C512.596 295.794 513.979 287.225 513.979 277.779C513.979 268.265 512.596 259.663 509.83 251.971C507.131 244.212 503.015 238.038 497.482 233.45C491.95 228.862 485.067 226.568 476.836 226.568C468.402 226.568 461.385 228.862 455.785 233.45C450.252 238.038 446.103 244.212 443.336 251.971C440.637 259.663 439.288 268.265 439.288 277.779C439.288 287.225 440.637 295.794 443.336 303.485C446.103 311.177 450.252 317.317 455.785 321.905C461.385 326.426 468.402 328.686 476.836 328.686ZM633.105 263.913V355H596.468V199.545H631.486V225.961H633.308C636.884 217.257 642.585 210.341 650.412 205.213C658.306 200.085 668.055 197.521 679.661 197.521C690.389 197.521 699.733 199.815 707.695 204.403C715.724 208.991 721.932 215.637 726.317 224.341C730.77 233.045 732.963 243.604 732.896 256.019V355H696.259V261.687C696.259 251.296 693.56 243.166 688.162 237.296C682.832 231.426 675.444 228.491 665.998 228.491C659.588 228.491 653.886 229.908 648.894 232.741C643.968 235.508 640.089 239.522 637.255 244.785C634.488 250.048 633.105 256.424 633.105 263.913ZM851.997 416.534C838.84 416.534 827.538 414.746 818.092 411.17C808.646 407.662 801.055 402.939 795.32 397.001C789.585 391.064 785.604 384.485 783.378 377.266L816.372 369.27C817.856 372.306 820.015 375.309 822.849 378.278C825.683 381.314 829.495 383.81 834.285 385.767C839.143 387.791 845.249 388.803 852.604 388.803C862.994 388.803 871.597 386.273 878.412 381.213C885.226 376.22 888.634 367.988 888.634 356.518V327.067H886.812C884.923 330.845 882.156 334.725 878.513 338.706C874.937 342.686 870.18 346.026 864.243 348.725C858.373 351.424 850.984 352.773 842.078 352.773C830.136 352.773 819.307 349.973 809.591 344.373C799.942 338.706 792.25 330.272 786.515 319.071C780.848 307.804 778.014 293.702 778.014 276.767C778.014 259.696 780.848 245.291 786.515 233.551C792.25 221.744 799.976 212.804 809.692 206.731C819.408 200.591 830.237 197.521 842.179 197.521C851.288 197.521 858.777 199.073 864.647 202.177C870.585 205.213 875.308 208.89 878.816 213.208C882.325 217.459 884.99 221.474 886.812 225.252H888.836V199.545H924.967V357.53C924.967 370.822 921.796 381.82 915.454 390.524C909.111 399.228 900.441 405.739 889.443 410.057C878.445 414.375 865.963 416.534 851.997 416.534ZM852.3 324.031C860.059 324.031 866.672 322.141 872.137 318.363C877.602 314.585 881.752 309.153 884.585 302.069C887.419 294.984 888.836 286.483 888.836 276.564C888.836 266.781 887.419 258.212 884.585 250.858C881.819 243.503 877.703 237.802 872.238 233.754C866.84 229.638 860.194 227.58 852.3 227.58C844.136 227.58 837.321 229.705 831.856 233.956C826.391 238.207 822.275 244.043 819.509 251.465C816.743 258.819 815.359 267.186 815.359 276.564C815.359 286.078 816.743 294.411 819.509 301.562C822.343 308.647 826.492 314.18 831.957 318.161C837.49 322.074 844.271 324.031 852.3 324.031ZM976.765 355V199.545H1012.29V225.455H1013.91C1016.74 216.481 1021.6 209.565 1028.48 204.707C1035.43 199.782 1043.36 197.319 1052.27 197.319C1054.29 197.319 1056.55 197.42 1059.05 197.623C1061.61 197.757 1063.74 197.994 1065.42 198.331V232.033C1063.87 231.493 1061.41 231.021 1058.03 230.616C1054.73 230.144 1051.52 229.908 1048.42 229.908C1041.74 229.908 1035.74 231.358 1030.4 234.26C1025.14 237.093 1020.99 241.04 1017.96 246.101C1014.92 251.161 1013.4 256.998 1013.4 263.61V355H976.765ZM1165.42 358.036C1150.24 358.036 1137.08 354.696 1125.95 348.017C1114.82 341.337 1106.18 331.992 1100.04 319.982C1093.97 307.972 1090.93 293.938 1090.93 277.88C1090.93 261.822 1093.97 247.754 1100.04 235.676C1106.18 223.599 1114.82 214.221 1125.95 207.541C1137.08 200.861 1150.24 197.521 1165.42 197.521C1180.6 197.521 1193.76 200.861 1204.89 207.541C1216.02 214.221 1224.63 223.599 1230.7 235.676C1236.84 247.754 1239.91 261.822 1239.91 277.88C1239.91 293.938 1236.84 307.972 1230.7 319.982C1224.63 331.992 1216.02 341.337 1204.89 348.017C1193.76 354.696 1180.6 358.036 1165.42 358.036ZM1165.62 328.686C1173.85 328.686 1180.74 326.426 1186.27 321.905C1191.8 317.317 1195.92 311.177 1198.62 303.485C1201.38 295.794 1202.77 287.225 1202.77 277.779C1202.77 268.265 1201.38 259.663 1198.62 251.971C1195.92 244.212 1191.8 238.038 1186.27 233.45C1180.74 228.862 1173.85 226.568 1165.62 226.568C1157.19 226.568 1150.17 228.862 1144.57 233.45C1139.04 238.038 1134.89 244.212 1132.12 251.971C1129.42 259.663 1128.08 268.265 1128.08 277.779C1128.08 287.225 1129.42 295.794 1132.12 303.485C1134.89 311.177 1139.04 317.317 1144.57 321.905C1150.17 326.426 1157.19 328.686 1165.62 328.686ZM1321.89 263.913V355H1285.26V147.727H1321.08V225.961H1322.9C1326.55 217.189 1332.18 210.273 1339.81 205.213C1347.5 200.085 1357.28 197.521 1369.16 197.521C1379.95 197.521 1389.36 199.782 1397.39 204.302C1405.42 208.823 1411.63 215.435 1416.02 224.139C1420.47 232.843 1422.69 243.469 1422.69 256.019V355H1386.06V261.687C1386.06 251.229 1383.36 243.098 1377.96 237.296C1372.63 231.426 1365.14 228.491 1355.49 228.491C1349.02 228.491 1343.21 229.908 1338.09 232.741C1333.03 235.508 1329.04 239.522 1326.14 244.785C1323.31 250.048 1321.89 256.424 1321.89 263.913Z" fill="url(#paint6_linear_536_45)"/>
<defs>
<linearGradient id="paint0_linear_536_45" x1="235.496" y1="227.335" x2="398.978" y2="90.7534" gradientUnits="userSpaceOnUse">
<stop stop-color="#B871FF"/>
<stop offset="0.21" stop-color="#B871FF"/>
<stop offset="0.43" stop-color="#9C39FF"/>
<stop offset="0.93" stop-color="#8019E8"/>
</linearGradient>
<linearGradient id="paint1_linear_536_45" x1="252.737" y1="255.97" x2="416.964" y2="107.069" gradientUnits="userSpaceOnUse">
<stop stop-color="#D4AAFF"/>
<stop offset="0.93" stop-color="#9C39FF"/>
</linearGradient>
<linearGradient id="paint2_linear_536_45" x1="359.269" y1="405.78" x2="229.967" y2="266.113" gradientUnits="userSpaceOnUse">
<stop stop-color="#B871FF"/>
<stop offset="0.125" stop-color="#B871FF"/>
<stop offset="0.3" stop-color="#9C39FF"/>
<stop offset="0.46" stop-color="#8019E8"/>
<stop offset="0.54" stop-color="#8019E8"/>
<stop offset="0.7" stop-color="#6300C6"/>
<stop offset="0.83" stop-color="#6300C6"/>
</linearGradient>
<linearGradient id="paint3_linear_536_45" x1="201.095" y1="228.892" x2="37.613" y2="92.3104" gradientUnits="userSpaceOnUse">
<stop stop-color="#B871FF"/>
<stop offset="0.21" stop-color="#B871FF"/>
<stop offset="0.43" stop-color="#9C39FF"/>
<stop offset="0.93" stop-color="#8019E8"/>
</linearGradient>
<linearGradient id="paint4_linear_536_45" x1="184.243" y1="255.701" x2="20.0172" y2="106.799" gradientUnits="userSpaceOnUse">
<stop stop-color="#D4AAFF"/>
<stop offset="0.93" stop-color="#9C39FF"/>
</linearGradient>
<linearGradient id="paint5_linear_536_45" x1="83.0214" y1="405.782" x2="207.067" y2="265.591" gradientUnits="userSpaceOnUse">
<stop stop-color="#B871FF"/>
<stop offset="0.119792" stop-color="#B871FF"/>
<stop offset="0.3" stop-color="#9C39FF"/>
<stop offset="0.46" stop-color="#8019E8"/>
<stop offset="0.54" stop-color="#8019E8"/>
<stop offset="0.7" stop-color="#6300C6"/>
<stop offset="0.83" stop-color="#6300C6"/>
</linearGradient>
<linearGradient id="paint6_linear_536_45" x1="390" y1="251.5" x2="1442" y2="251.5" gradientUnits="userSpaceOnUse">
<stop stop-color="#B871FF"/>
<stop offset="1" stop-color="#A952FF"/>
</linearGradient>
</defs>
</svg>
