<svg width="50" height="50" viewBox="0 0 50 50" fill="none" xmlns="http://www.w3.org/2000/svg">
<path d="M25.7103 27.1119C25.9483 26.6269 26.381 26.0192 27.1418 25.284C27.5108 24.9346 27.9545 24.5495 28.4948 24.1439C28.5848 24.0788 28.6748 24.0137 28.7648 23.9485C28.8548 23.8834 28.9448 23.8183 29.0422 23.7533C32.5284 21.3164 35.2462 21.3194 37.9223 17.7788C39.8553 15.2258 40.3039 12.0095 39.9385 9.17925C39.9172 9.11959 39.8886 9.05979 39.8601 9C39.8601 9 39.6165 9.80363 38.7852 10.7601C38.5132 11.074 36.8266 12.6603 34.2462 13.2675C31.6211 13.8887 29.3819 15.7396 28.7623 16.4477C28.1577 17.1413 26.4891 18.55 25.7202 23.5692C25.7197 23.5989 25.7118 23.6284 25.7039 23.6579C25.6953 23.7244 25.6866 23.7984 25.6705 23.8722C25.569 24.5968 25.6065 25.8427 25.7029 27.1118L25.7103 27.1119Z" fill="url(#paint0_linear_493_2)"/>
<path d="M25.7101 27.1116C25.8376 28.7148 26.0755 30.3644 26.271 31.0423C26.271 31.0423 26.271 31.0423 26.2709 31.0497C26.2778 31.0794 26.2919 31.1167 26.2988 31.1465C26.2988 31.1465 26.2986 31.1613 26.2984 31.1687C26.2982 31.1836 26.3355 31.2003 26.3426 31.2153C26.4348 30.6017 26.8821 29.5483 28.6335 28.0669C28.8514 27.8854 29.0919 27.6895 29.3471 27.4938C29.5272 27.3562 29.7072 27.2259 29.8872 27.0956C30.8318 26.4377 31.7141 25.9565 32.5583 25.5339C34.837 24.3952 36.8116 23.7034 38.7672 21.1212C41.5343 17.4636 41.2661 12.4559 39.9088 9.17102C40.2744 11.9939 39.8258 15.2102 37.8926 17.7706C35.2092 21.311 32.4987 21.3082 29.0125 23.745C28.9225 23.8102 28.8325 23.8753 28.7351 23.9403C28.6451 24.0054 28.5551 24.0706 28.4651 24.1357C27.9248 24.5413 27.4812 24.9264 27.1122 25.2757C26.3441 26.0035 25.9481 26.5876 25.7101 27.0727V27.1116Z" fill="url(#paint1_linear_493_2)"/>
<path d="M26.3134 31.1439C27.0566 33.5361 27.5166 35.612 29.6471 37.8729C32.7663 41.1885 37.5449 41.5018 40.8137 40.4915C40.8734 40.4704 40.9403 40.4566 40.9999 40.4356C40.9999 40.4356 40.2726 40.0892 39.4604 39.1042C39.1995 38.7881 37.9078 36.8385 37.6374 34.0767C37.368 31.2703 35.8946 28.7097 35.2999 27.9878C34.9154 27.5215 34.2956 26.5324 32.5806 25.5092C31.7364 25.9318 30.8541 26.413 29.9095 27.0709C29.7296 27.1938 29.5496 27.324 29.3694 27.4692C29.1068 27.6647 28.8664 27.8606 28.6558 28.0422C26.897 29.5235 26.4267 30.59 26.3421 31.1963C26.3423 31.1815 26.3279 31.159 26.3207 31.144L26.3134 31.1439Z" fill="url(#paint2_linear_493_2)"/>
<path d="M24.2485 27.2587C24.0105 26.7737 23.5778 26.1661 22.8169 25.4307C22.448 25.0814 22.0043 24.6964 21.464 24.2907C21.374 24.2256 21.284 24.1604 21.194 24.0953C21.104 24.0302 21.014 23.9651 20.9166 23.9C17.4304 21.4632 14.7125 21.4662 12.0365 17.9256C10.1035 15.3726 9.65494 12.1563 10.0203 9.32604C10.0415 9.26638 10.0701 9.20658 10.0986 9.14679C10.0986 9.14679 10.3422 9.95042 11.1736 10.9068C11.4456 11.2208 13.1322 12.8071 15.7126 13.4143C18.3377 14.0355 20.5769 15.8864 21.1965 16.5945C21.8011 17.2881 23.4697 18.6968 24.2386 23.716C24.2391 23.7457 24.247 23.7752 24.2549 23.8047C24.2635 23.8712 24.2722 23.9452 24.2883 24.019C24.3898 24.7436 24.3523 25.9894 24.2559 27.2586L24.2485 27.2587Z" fill="url(#paint3_linear_493_2)"/>
<path d="M24.2868 27.086C24.1592 28.6892 23.9214 30.3387 23.7258 31.0166C23.7258 31.0166 23.7258 31.0166 23.7259 31.0241C23.7191 31.0538 23.7049 31.0911 23.698 31.1209C23.698 31.1209 23.6983 31.1357 23.6984 31.1431C23.6987 31.1579 23.6613 31.1747 23.6542 31.1896C23.562 30.5761 23.1147 29.5227 21.3633 28.0413C21.1454 27.8598 20.905 27.6639 20.6498 27.4682C20.4696 27.3305 20.2896 27.2003 20.1096 27.07C19.165 26.412 18.2827 25.9309 17.4385 25.5083C15.1599 24.3696 13.1853 23.6778 11.2296 21.0955C8.46266 17.438 8.7308 12.4303 10.088 9.14539C9.72252 11.9683 10.1711 15.1846 12.1043 17.7449C14.7876 21.2854 17.4981 21.2825 20.9843 23.7194C21.0743 23.7845 21.1643 23.8497 21.2617 23.9147C21.3517 23.9798 21.4417 24.0449 21.5317 24.1101C22.072 24.5157 22.5157 24.9008 22.8847 25.2501C23.6527 25.9779 24.0487 26.5039 24.2868 26.9889V27.086Z" fill="url(#paint4_linear_493_2)"/>
<path d="M23.6865 31.1252C22.9433 33.5174 22.4833 35.5934 20.3528 37.8541C17.2335 41.1697 12.4549 41.483 9.18612 40.4729C9.12651 40.4516 9.05961 40.438 9 40.4167C9 40.4167 9.72713 40.0706 10.5394 39.0854C10.8005 38.7696 12.0921 36.8199 12.3624 34.0581C12.6319 31.2516 14.1054 28.691 14.7001 27.9691C15.0845 27.5029 15.7041 26.5137 17.4193 25.4905C18.2635 25.9131 19.1457 26.3943 20.0904 27.0522C20.2702 27.1751 20.4502 27.3054 20.6305 27.4505C20.8931 27.646 21.1335 27.8419 21.344 28.0235C23.1028 29.5048 23.5732 30.5713 23.6578 31.1776C23.6576 31.1628 23.672 31.1403 23.6791 31.1253L23.6865 31.1252Z" fill="url(#paint5_linear_493_2)"/>
<defs>
<linearGradient id="paint0_linear_493_2" x1="26.7049" y1="23.1639" x2="42.2504" y2="9.33582" gradientUnits="userSpaceOnUse">
<stop stop-color="#B871FF"/>
<stop offset="0.21" stop-color="#B871FF"/>
<stop offset="0.43" stop-color="#9C39FF"/>
<stop offset="0.93" stop-color="#8019E8"/>
</linearGradient>
<linearGradient id="paint1_linear_493_2" x1="28.4343" y1="25.8621" x2="43.9718" y2="10.8628" gradientUnits="userSpaceOnUse">
<stop stop-color="#D4AAFF"/>
<stop offset="0.93" stop-color="#9C39FF"/>
</linearGradient>
<linearGradient id="paint2_linear_493_2" x1="39.1209" y1="39.9765" x2="27.0209" y2="26.0606" gradientUnits="userSpaceOnUse">
<stop stop-color="#B871FF"/>
<stop offset="0.125" stop-color="#B871FF"/>
<stop offset="0.3" stop-color="#9C39FF"/>
<stop offset="0.46" stop-color="#8019E8"/>
<stop offset="0.54" stop-color="#8019E8"/>
<stop offset="0.7" stop-color="#6300C6"/>
<stop offset="0.83" stop-color="#6300C6"/>
</linearGradient>
<linearGradient id="paint3_linear_493_2" x1="23.254" y1="23.3107" x2="7.70841" y2="9.48259" gradientUnits="userSpaceOnUse">
<stop stop-color="#B871FF"/>
<stop offset="0.21" stop-color="#B871FF"/>
<stop offset="0.43" stop-color="#9C39FF"/>
<stop offset="0.93" stop-color="#8019E8"/>
</linearGradient>
<linearGradient id="paint4_linear_493_2" x1="21.5635" y1="25.8365" x2="6.02617" y2="10.8372" gradientUnits="userSpaceOnUse">
<stop stop-color="#D4AAFF"/>
<stop offset="0.93" stop-color="#9C39FF"/>
</linearGradient>
<linearGradient id="paint5_linear_493_2" x1="11.4097" y1="39.9768" x2="22.9856" y2="26.0475" gradientUnits="userSpaceOnUse">
<stop stop-color="#B871FF"/>
<stop offset="0.119792" stop-color="#B871FF"/>
<stop offset="0.3" stop-color="#9C39FF"/>
<stop offset="0.46" stop-color="#8019E8"/>
<stop offset="0.54" stop-color="#8019E8"/>
<stop offset="0.7" stop-color="#6300C6"/>
<stop offset="0.83" stop-color="#6300C6"/>
</linearGradient>
</defs>
</svg>
