<svg width="24" height="24" viewBox="0 0 24 24" fill="none" xmlns="http://www.w3.org/2000/svg">
<path d="M12 4.35399V11.005L19.442 11.004L17.72 9.27999C17.593 9.153 17.5158 8.98465 17.5024 8.80554C17.489 8.62643 17.5403 8.44846 17.647 8.30399L17.72 8.21999C17.847 8.09298 18.0153 8.01575 18.1945 8.00235C18.3736 7.98895 18.5515 8.04028 18.696 8.14699L18.78 8.21999L21.777 11.217C21.904 11.344 21.9812 11.5123 21.9946 11.6914C22.008 11.8706 21.9567 12.0485 21.85 12.193L21.777 12.277L18.781 15.281C18.6472 15.4143 18.468 15.4922 18.2792 15.4991C18.0904 15.506 17.906 15.4414 17.7628 15.3183C17.6196 15.1951 17.5281 15.0225 17.5066 14.8348C17.4852 14.6472 17.5353 14.4583 17.647 14.306L17.719 14.221L19.432 12.504L12.001 12.505L12 19.25C12.0001 19.3595 11.9761 19.4677 11.9299 19.567C11.8836 19.6663 11.8162 19.7543 11.7323 19.8247C11.6484 19.8951 11.5502 19.9463 11.4444 19.9747C11.3386 20.0031 11.2279 20.008 11.12 19.989L2.62 18.487C2.44658 18.4565 2.28943 18.3659 2.17607 18.2312C2.06272 18.0964 2.00039 17.9261 2 17.75V5.74999C2 5.57223 2.06314 5.40025 2.17816 5.26472C2.29318 5.12918 2.45261 5.03891 2.628 5.00999L11.128 3.61399C11.2354 3.59629 11.3453 3.60217 11.4502 3.63121C11.555 3.66025 11.6523 3.71176 11.7353 3.78216C11.8182 3.85257 11.8849 3.94018 11.9306 4.03893C11.9763 4.13767 12 4.24518 12 4.35399ZM8.502 11.5C8.23625 11.5 7.98139 11.6056 7.79348 11.7935C7.60557 11.9814 7.5 12.2362 7.5 12.502C7.5 12.7677 7.60557 13.0226 7.79348 13.2105C7.98139 13.3984 8.23625 13.504 8.502 13.504C8.76775 13.504 9.02261 13.3984 9.21052 13.2105C9.39843 13.0226 9.504 12.7677 9.504 12.502C9.504 12.2362 9.39843 11.9814 9.21052 11.7935C9.02261 11.6056 8.76775 11.5 8.502 11.5Z" fill="#B794F4"/>
<path d="M13 18.501H13.765L13.867 18.495C14.0469 18.4703 14.2117 18.3812 14.3309 18.2442C14.4501 18.1072 14.5155 17.9316 14.515 17.75L14.508 13.5H13V18.501ZM13.002 10L13 8.725V5H13.745C13.9261 4.99997 14.1011 5.06547 14.2376 5.18439C14.3742 5.30331 14.4631 5.46763 14.488 5.647L14.495 5.749L14.502 10H13.002Z" fill="#B794F4"/>
</svg>
