<svg width="24" height="24" viewBox="0 0 24 24" fill="none" xmlns="http://www.w3.org/2000/svg">
<path d="M18 2C18.1728 2.00006 18.3402 2.05976 18.474 2.169L18.55 2.239L21.822 5.769L21.852 5.807C21.954 5.943 22 6.097 22 6.247V8.168C22 9.162 21.621 10.068 21 10.748V21.25C21 21.4314 20.9342 21.6066 20.8149 21.7432C20.6955 21.8798 20.5307 21.9686 20.351 21.993L20.25 22H3.75001C3.56877 22 3.39367 21.9344 3.25708 21.8152C3.12049 21.6961 3.03166 21.5316 3.00701 21.352L3.00001 21.25V10.748C2.40871 10.1009 2.05809 9.27007 2.00701 8.395L2.00001 8.167V6.29C1.99132 6.14753 2.0247 6.00565 2.09601 5.882L2.16101 5.787L2.20101 5.741L5.45001 2.24C5.56766 2.11309 5.72559 2.03077 5.89701 2.007L6.00001 2H18ZM15.082 10.442L15.07 10.46C14.7135 10.9383 14.2502 11.3266 13.717 11.594C13.1838 11.8613 12.5955 12.0004 11.999 12C11.3991 12.0004 10.8076 11.8598 10.272 11.5895C9.73648 11.3192 9.27198 10.9268 8.91601 10.444C8.56024 10.9268 8.09593 11.3192 7.56055 11.5895C7.02518 11.8598 6.43375 12.0004 5.83401 12C5.36401 12 4.91501 11.916 4.50001 11.762V20.5H6.00001V13.752C6.00002 13.5708 6.06565 13.3957 6.18477 13.2591C6.3039 13.1225 6.46845 13.0336 6.64801 13.009L6.75001 13H11.246C11.4272 13 11.6023 13.0656 11.7389 13.1848C11.8755 13.3039 11.9644 13.4684 11.989 13.648L11.996 13.75V20.498H19.498V11.761C18.7185 12.0507 17.8658 12.0785 17.069 11.8403C16.2722 11.6022 15.5747 11.1109 15.082 10.441V10.442ZM10.495 14.501H7.50001V20.499H10.495V14.501ZM17.255 13.001C17.4362 13.001 17.6113 13.0666 17.7479 13.1858C17.8845 13.3049 17.9734 13.4694 17.998 13.649L18.005 13.751V17.253C18.005 17.4344 17.9392 17.6096 17.8199 17.7462C17.7005 17.8828 17.5357 17.9716 17.356 17.996L17.255 18.003H13.753C13.5718 18.003 13.3967 17.9374 13.2601 17.8182C13.1235 17.6991 13.0347 17.5346 13.01 17.355L13.003 17.253V13.751C13.003 13.5698 13.0687 13.3947 13.1878 13.2581C13.3069 13.1215 13.4715 13.0326 13.651 13.008L13.753 13.001H17.255ZM16.504 14.501H14.503V16.503H16.503L16.504 14.501ZM8.16601 7.002H3.50001V8.167L3.50601 8.337L3.53501 8.569L3.56701 8.725L3.61701 8.897L3.67101 9.045L3.71101 9.139C3.74301 9.207 3.77701 9.273 3.81501 9.337L3.91701 9.499L3.97201 9.573L4.10101 9.729L4.24201 9.873L4.33901 9.958L4.38101 9.992C4.69501 10.242 5.07601 10.414 5.49201 10.475L5.67201 10.494L5.83201 10.499C7.06701 10.499 8.07801 9.54 8.16001 8.326L8.16501 8.166V7.003L8.16601 7.002ZM14.331 7.002H9.66601V8.167C9.66601 9.347 10.544 10.324 11.682 10.478L11.839 10.494L11.999 10.499C13.233 10.499 14.244 9.54 14.326 8.326L14.331 8.166V7.002ZM20.498 7.002H15.833V8.167C15.833 9.347 16.711 10.324 17.85 10.478L18.006 10.494L18.166 10.499C18.73 10.499 19.248 10.299 19.651 9.965L19.741 9.887L19.857 9.774L20.003 9.604C20.057 9.535 20.108 9.464 20.153 9.388L20.257 9.202L20.32 9.064L20.378 8.909L20.408 8.813L20.446 8.661L20.475 8.504L20.493 8.337L20.499 8.167L20.498 7.002ZM9.06201 3.499H6.32701L4.46901 5.502H8.44601L9.06201 3.499ZM13.368 3.499H10.63L10.014 5.502H13.984L13.368 3.499ZM17.672 3.499H14.937L15.554 5.502H19.53L17.672 3.499Z" fill="#808080"/>
</svg>
