<svg width="24" height="24" viewBox="0 0 24 24" fill="none" xmlns="http://www.w3.org/2000/svg">
<path d="M10.495 14.501V21.999H7.49801V14.501H10.495ZM17.255 13.001H13.753C13.5541 13.001 13.3633 13.08 13.2227 13.2207C13.082 13.3613 13.003 13.5521 13.003 13.751V17.253C13.003 17.667 13.339 18.003 13.753 18.003H17.255C17.4539 18.003 17.6447 17.924 17.7853 17.7833C17.926 17.6427 18.005 17.4519 18.005 17.253V13.751C18.005 13.5521 17.926 13.3613 17.7853 13.2207C17.6447 13.08 17.4539 13.001 17.255 13.001ZM16.504 14.501V16.503H14.503V14.501H16.504ZM8.16601 7.002H3.50001V8.167C3.50001 9.347 4.37801 10.324 5.51601 10.478L5.67301 10.494L5.83301 10.499C7.06701 10.499 8.07801 9.54 8.16001 8.326L8.16501 8.166V7.003L8.16601 7.002ZM14.331 7.002H9.66601V8.167C9.66601 9.347 10.544 10.324 11.682 10.478L11.839 10.494L11.999 10.499C13.233 10.499 14.244 9.54 14.326 8.326L14.331 8.166V7.002ZM20.498 7.002H15.833V8.167C15.833 9.347 16.711 10.324 17.85 10.478L18.006 10.494L18.166 10.499C19.401 10.499 20.411 9.54 20.493 8.326L20.499 8.166L20.498 7.002ZM9.06001 3.5H6.32601L4.46901 5.502H8.44601L9.06001 3.5ZM13.367 3.5H10.63L10.014 5.502H13.984L13.369 3.5H13.367ZM17.672 3.5H14.938L15.552 5.502H19.529L17.672 3.5ZM2.20001 5.742L5.45001 2.24C5.56741 2.11329 5.72495 2.03099 5.89601 2.007L6.00001 2H18C18.1728 2.00006 18.3402 2.05976 18.474 2.169L18.55 2.239L21.822 5.769L21.852 5.807C21.954 5.943 22 6.097 22 6.247V8.168C22 9.162 21.621 10.068 21 10.748V21.25C21 21.4314 20.9342 21.6066 20.8149 21.7432C20.6955 21.8798 20.5307 21.9686 20.351 21.993L20.25 22L11.996 21.999V13.751C11.996 13.5521 11.917 13.3613 11.7763 13.2207C11.6357 13.08 11.4449 13.001 11.246 13.001H6.75001C6.5511 13.001 6.36033 13.08 6.21968 13.2207C6.07903 13.3613 6.00001 13.5521 6.00001 13.751V21.999L3.75001 22C3.56877 22 3.39367 21.9344 3.25708 21.8152C3.12049 21.6961 3.03166 21.5316 3.00701 21.352L3.00001 21.25V10.748C2.40141 10.0931 2.04959 9.25014 2.00501 8.364L2.00001 8.167V6.29C1.99132 6.14753 2.0247 6.00565 2.09601 5.882L2.14601 5.806L2.20001 5.742Z" fill="#B794F4"/>
</svg>
