<svg width="24" height="24" viewBox="0 0 24 24" fill="none" xmlns="http://www.w3.org/2000/svg">
<path d="M15 4.25001C15 3.17101 13.726 2.60001 12.92 3.31601L8.427 7.30901C8.28986 7.43118 8.11266 7.49879 7.929 7.49901H4.25C3.65326 7.49901 3.08097 7.73606 2.65901 8.15802C2.23705 8.57997 2 9.15227 2 9.74901V14.246C2 14.8427 2.23705 15.415 2.65901 15.837C3.08097 16.259 3.65326 16.496 4.25 16.496H7.93C8.11366 16.4962 8.29086 16.5638 8.428 16.686L12.919 20.68C13.725 21.396 15 20.824 15 19.746V4.25001ZM16.22 9.22001C16.3606 9.07956 16.5512 9.00067 16.75 9.00067C16.9488 9.00067 17.1394 9.07956 17.28 9.22001L19 10.94L20.72 9.22001C20.7887 9.14632 20.8715 9.08722 20.9635 9.04622C21.0555 9.00523 21.1548 8.98319 21.2555 8.98141C21.3562 8.97964 21.4562 8.99816 21.5496 9.03588C21.643 9.0736 21.7278 9.12975 21.799 9.20097C21.8703 9.27219 21.9264 9.35702 21.9641 9.45041C22.0018 9.5438 22.0204 9.64382 22.0186 9.74453C22.0168 9.84523 21.9948 9.94454 21.9538 10.0365C21.9128 10.1285 21.8537 10.2113 21.78 10.28L20.06 12L21.78 13.72C21.8537 13.7887 21.9128 13.8715 21.9538 13.9635C21.9948 14.0555 22.0168 14.1548 22.0186 14.2555C22.0204 14.3562 22.0018 14.4562 21.9641 14.5496C21.9264 14.643 21.8703 14.7278 21.799 14.799C21.7278 14.8703 21.643 14.9264 21.5496 14.9641C21.4562 15.0018 21.3562 15.0204 21.2555 15.0186C21.1548 15.0168 21.0555 14.9948 20.9635 14.9538C20.8715 14.9128 20.7887 14.8537 20.72 14.78L19 13.06L17.28 14.78C17.2113 14.8537 17.1285 14.9128 17.0365 14.9538C16.9445 14.9948 16.8452 15.0168 16.7445 15.0186C16.6438 15.0204 16.5438 15.0018 16.4504 14.9641C16.357 14.9264 16.2722 14.8703 16.201 14.799C16.1297 14.7278 16.0736 14.643 16.0359 14.5496C15.9982 14.4562 15.9796 14.3562 15.9814 14.2555C15.9832 14.1548 16.0052 14.0555 16.0462 13.9635C16.0872 13.8715 16.1463 13.7887 16.22 13.72L17.94 12L16.22 10.28C16.0795 10.1394 16.0007 9.94876 16.0007 9.75001C16.0007 9.55126 16.0795 9.36063 16.22 9.22001Z" fill="#B794F4"/>
</svg>
