<svg width="24" height="24" viewBox="0 0 24 24" fill="none" xmlns="http://www.w3.org/2000/svg">
<path d="M17 21.245L17.002 15.245C15.5839 16.3839 13.8188 17.0032 12 17C10.182 17.003 8.41769 16.3841 7 15.246L7.003 21.246C7.00333 21.3831 7.04125 21.5176 7.11264 21.6346C7.18403 21.7517 7.28616 21.847 7.40792 21.9101C7.52969 21.9732 7.66642 22.0017 7.80325 21.9925C7.94008 21.9833 8.07177 21.9368 8.184 21.858L12.001 19.171L15.819 21.858C15.9313 21.9371 16.0632 21.9839 16.2003 21.9932C16.3373 22.0025 16.4743 21.9739 16.5963 21.9107C16.7182 21.8474 16.8205 21.7519 16.8919 21.6345C16.9632 21.5171 17 21.3824 17 21.245Z" fill="#808080"/>
<path d="M19 9C19 8.08075 18.8189 7.1705 18.4672 6.32122C18.1154 5.47194 17.5998 4.70026 16.9497 4.05025C16.2997 3.40024 15.5281 2.88463 14.6788 2.53284C13.8295 2.18106 12.9193 2 12 2C11.0807 2 10.1705 2.18106 9.32122 2.53284C8.47194 2.88463 7.70026 3.40024 7.05025 4.05025C6.40024 4.70026 5.88463 5.47194 5.53284 6.32122C5.18106 7.1705 5 8.08075 5 9C5 10.8565 5.7375 12.637 7.05025 13.9497C8.36301 15.2625 10.1435 16 12 16C13.8565 16 15.637 15.2625 16.9497 13.9497C18.2625 12.637 19 10.8565 19 9ZM12.229 5.642L13.141 7.495L15.185 7.79C15.395 7.82 15.478 8.078 15.327 8.225L13.848 9.665L14.198 11.701C14.2061 11.7479 14.2009 11.7962 14.183 11.8403C14.1651 11.8844 14.1352 11.9226 14.0967 11.9506C14.0582 11.9786 14.0126 11.9952 13.9651 11.9986C13.9176 12.0021 13.8701 11.9922 13.828 11.97L12 11.008L10.173 11.97C10.1309 11.9922 10.0834 12.0021 10.0359 11.9986C9.98842 11.9952 9.94285 11.9786 9.90434 11.9506C9.86584 11.9226 9.83594 11.8844 9.81803 11.8403C9.80012 11.7962 9.79491 11.7479 9.803 11.701L10.153 9.666L8.673 8.226C8.63861 8.19279 8.61424 8.15057 8.60269 8.10417C8.59114 8.05777 8.59287 8.00906 8.60767 7.9636C8.62248 7.91814 8.64977 7.87775 8.68643 7.84705C8.72309 7.81636 8.76764 7.79659 8.815 7.79L10.859 7.495L11.771 5.642C11.792 5.59916 11.8246 5.56306 11.8651 5.53781C11.9055 5.51256 11.9523 5.49918 12 5.49918C12.0477 5.49918 12.0945 5.51256 12.1349 5.53781C12.1754 5.56306 12.208 5.59916 12.229 5.642Z" fill="#808080"/>
</svg>
