<svg width="24" height="24" viewBox="0 0 24 24" fill="none" xmlns="http://www.w3.org/2000/svg">
<path d="M10.5 8.25C10.5 8.05109 10.421 7.86032 10.2803 7.71967C10.1397 7.57902 9.94891 7.5 9.75 7.5C9.55109 7.5 9.36032 7.57902 9.21967 7.71967C9.07902 7.86032 9 8.05109 9 8.25V15.75C9 15.9489 9.07902 16.1397 9.21967 16.2803C9.36032 16.421 9.55109 16.5 9.75 16.5C9.94891 16.5 10.1397 16.421 10.2803 16.2803C10.421 16.1397 10.5 15.9489 10.5 15.75V8.25ZM15 8.25C15 8.05109 14.921 7.86032 14.7803 7.71967C14.6397 7.57902 14.4489 7.5 14.25 7.5C14.0511 7.5 13.8603 7.57902 13.7197 7.71967C13.579 7.86032 13.5 8.05109 13.5 8.25V15.75C13.5 15.9489 13.579 16.1397 13.7197 16.2803C13.8603 16.421 14.0511 16.5 14.25 16.5C14.4489 16.5 14.6397 16.421 14.7803 16.2803C14.921 16.1397 15 15.9489 15 15.75V8.25ZM12 2C6.477 2 2 6.477 2 12C2 17.523 6.477 22 12 22C17.523 22 22 17.523 22 12C22 6.477 17.523 2 12 2ZM3.5 12C3.5 9.74566 4.39553 7.58365 5.98959 5.98959C7.58365 4.39553 9.74566 3.5 12 3.5C14.2543 3.5 16.4163 4.39553 18.0104 5.98959C19.6045 7.58365 20.5 9.74566 20.5 12C20.5 14.2543 19.6045 16.4163 18.0104 18.0104C16.4163 19.6045 14.2543 20.5 12 20.5C9.74566 20.5 7.58365 19.6045 5.98959 18.0104C4.39553 16.4163 3.5 14.2543 3.5 12Z" fill="#B794F4"/>
</svg>
