<svg width="24" height="24" viewBox="0 0 24 24" fill="none" xmlns="http://www.w3.org/2000/svg">
<path d="M2 12C2 6.477 6.477 2 12 2C17.523 2 22 6.477 22 12C22 17.523 17.523 22 12 22C6.477 22 2 17.523 2 12ZM10.856 8.155C10.6657 8.04953 10.4512 7.99555 10.2337 7.99839C10.0162 8.00122 9.80315 8.06078 9.61569 8.17118C9.42824 8.28157 9.27284 8.43897 9.16485 8.62783C9.05687 8.81669 9.00005 9.03045 9 9.248V14.752C9.00005 14.9695 9.05687 15.1833 9.16485 15.3722C9.27284 15.561 9.42824 15.7184 9.61569 15.8288C9.80315 15.9392 10.0162 15.9988 10.2337 16.0016C10.4512 16.0044 10.6657 15.9505 10.856 15.845L16.613 12.656C16.7301 12.5911 16.8277 12.496 16.8957 12.3807C16.9636 12.2653 16.9995 12.1339 16.9995 12C16.9995 11.8661 16.9636 11.7347 16.8957 11.6193C16.8277 11.504 16.7301 11.4089 16.613 11.344L10.856 8.155Z" fill="#B794F4"/>
</svg>
