<svg width="24" height="24" viewBox="0 0 24 24" fill="none" xmlns="http://www.w3.org/2000/svg">
<path d="M15.25 3C15.4489 3 15.6397 3.07902 15.7803 3.21967C15.921 3.36032 16 3.55109 16 3.75V7H17.75C18.612 7 19.4386 7.34241 20.0481 7.9519C20.6576 8.5614 21 9.38805 21 10.25V16.75C21 17.612 20.6576 18.4386 20.0481 19.0481C19.4386 19.6576 18.612 20 17.75 20H6.25C5.38805 20 4.5614 19.6576 3.9519 19.0481C3.34241 18.4386 3 17.612 3 16.75V10.25C3 9.38805 3.34241 8.5614 3.9519 7.9519C4.5614 7.34241 5.38805 7 6.25 7H8V3.75C8.00001 3.56876 8.06564 3.39366 8.18477 3.25707C8.30389 3.12048 8.46845 3.03165 8.648 3.007L8.75 3H15.25ZM14.5 4.5H9.5V7H14.5V4.5Z" fill="#B794F4"/>
</svg>
