<svg width="24" height="24" viewBox="0 0 24 24" fill="none" xmlns="http://www.w3.org/2000/svg">
<path d="M6.19002 21.854C6.0779 21.9347 5.94568 21.9828 5.80794 21.9931C5.67021 22.0034 5.5323 21.9755 5.40943 21.9124C5.28657 21.8493 5.1835 21.7535 5.11161 21.6356C5.03972 21.5176 5.0018 21.3821 5.00202 21.244V6.25C5.00202 5.38805 5.34443 4.5614 5.95392 3.9519C6.56341 3.34241 7.39006 3 8.25202 3H15.751C16.6126 3.00027 17.4389 3.34265 18.0481 3.9519C18.6574 4.56115 18.9998 5.38739 19 6.249V21.245C19 21.383 18.962 21.5184 18.89 21.6362C18.8181 21.754 18.715 21.8496 18.5921 21.9126C18.4693 21.9756 18.3315 22.0034 18.1938 21.9931C18.0562 21.9827 17.9241 21.9346 17.812 21.854L12.001 17.673L6.18902 21.853L6.19002 21.854Z" fill="#B794F4"/>
</svg>
