<svg width="24" height="24" viewBox="0 0 24 24" fill="none" xmlns="http://www.w3.org/2000/svg">
<path d="M6.74701 3.99998H10.211C10.401 4.00004 10.584 4.07222 10.7228 4.20195C10.8617 4.33168 10.9461 4.50928 10.959 4.69886C10.972 4.88844 10.9125 5.07587 10.7926 5.22328C10.6727 5.37068 10.5013 5.46708 10.313 5.49298L10.211 5.49998H6.74701C6.17688 5.49991 5.62799 5.71627 5.21126 6.10535C4.79452 6.49442 4.54103 7.02719 4.50201 7.59598L4.49701 7.74998V17.25C4.49694 17.8201 4.7133 18.369 5.10238 18.7857C5.49145 19.2025 6.02422 19.456 6.59301 19.495L6.74701 19.5H16.247C16.8171 19.5 17.366 19.2837 17.7828 18.8946C18.1995 18.5055 18.453 17.9728 18.492 17.404L18.497 17.25V16.752C18.4953 16.5607 18.5668 16.376 18.6968 16.2357C18.8268 16.0954 19.0055 16.01 19.1964 15.9971C19.3872 15.9842 19.5758 16.0447 19.7235 16.1663C19.8712 16.2878 19.9669 16.4612 19.991 16.651L19.997 16.752V17.25C19.9971 18.21 19.629 19.1334 18.9686 19.8302C18.3081 20.5269 17.4056 20.9438 16.447 20.995L16.247 21H6.74701C5.78701 21.0001 4.86354 20.632 4.16682 19.9715C3.47011 19.3111 3.05321 18.4086 3.00201 17.45L2.99701 17.25V7.74998C2.99692 6.78998 3.36501 5.86651 4.02545 5.16979C4.68589 4.47308 5.58838 4.05618 6.54701 4.00498L6.74701 3.99998ZM14.5 6.54398V3.74998C14.4999 3.61202 14.5379 3.47672 14.6097 3.35895C14.6816 3.24117 14.7845 3.1455 14.9072 3.08244C15.0299 3.01939 15.1676 2.99139 15.3052 3.00155C15.4428 3.0117 15.5749 3.0596 15.687 3.13998L15.769 3.20898L21.763 8.95898C22.043 9.22698 22.069 9.65898 21.84 9.95598L21.763 10.041L15.769 15.793C15.6695 15.8886 15.5456 15.9549 15.4109 15.9846C15.2762 16.0143 15.1359 16.0063 15.0055 15.9614C14.875 15.9165 14.7595 15.8366 14.6715 15.7303C14.5836 15.624 14.5267 15.4955 14.507 15.359L14.5 15.252V12.45L14.179 12.444C11.521 12.436 9.24901 13.527 7.31401 15.745C6.81801 16.313 5.88901 15.877 6.00801 15.133C6.83501 9.99298 9.60801 7.08798 14.198 6.57398L14.5 6.54398Z" fill="#808080"/>
</svg>
