<svg width="24" height="24" viewBox="0 0 24 24" fill="none" xmlns="http://www.w3.org/2000/svg">
<path d="M15.25 13.5H11.25C11.0511 13.5 10.8603 13.421 10.7197 13.2803C10.579 13.1397 10.5 12.9489 10.5 12.75V6.75C10.5 6.55109 10.579 6.36032 10.7197 6.21967C10.8603 6.07902 11.0511 6 11.25 6C11.4489 6 11.6397 6.07902 11.7803 6.21967C11.921 6.36032 12 6.55109 12 6.75V12H15.25C15.4489 12 15.6397 12.079 15.7803 12.2197C15.921 12.3603 16 12.5511 16 12.75C16 12.9489 15.921 13.1397 15.7803 13.2803C15.6397 13.421 15.4489 13.5 15.25 13.5ZM12 2C6.478 2 2 6.478 2 12C2 17.522 6.478 22 12 22C17.522 22 22 17.522 22 12C22 6.478 17.522 2 12 2Z" fill="#808080"/>
</svg>
