<svg width="24" height="24" viewBox="0 0 24 24" fill="none" xmlns="http://www.w3.org/2000/svg">
<path d="M13.5 12.501C13.8729 12.501 14.2324 12.6399 14.5084 12.8906C14.7844 13.1413 14.9572 13.4858 14.993 13.857L15 14V15H13.5C12.837 15 12.2011 15.2634 11.7322 15.7322C11.2634 16.2011 11 16.837 11 17.5V20.721C10.18 20.9088 9.34123 21.0024 8.5 21C5.778 21 2.165 20.044 2.005 16.73L2 16.5V14C2.00002 13.6271 2.13892 13.2676 2.38962 12.9916C2.64032 12.7156 2.98484 12.5428 3.356 12.507L3.5 12.5L13.5 12.501ZM21.5 15C21.671 15 21.838 15.017 22 15.05V14L21.993 13.855C21.957 13.484 21.7841 13.1397 21.5081 12.8892C21.2321 12.6388 20.8727 12.5 20.5 12.5H15.488L15.601 12.662C15.851 13.049 16 13.506 16 14V15H21.5ZM8.5 2C9.09095 2 9.67611 2.1164 10.2221 2.34254C10.768 2.56869 11.2641 2.90016 11.682 3.31802C12.0998 3.73588 12.4313 4.23196 12.6575 4.77792C12.8836 5.32389 13 5.90905 13 6.5C13 7.09095 12.8836 7.67611 12.6575 8.22208C12.4313 8.76804 12.0998 9.26412 11.682 9.68198C11.2641 10.0998 10.768 10.4313 10.2221 10.6575C9.67611 10.8836 9.09095 11 8.5 11C7.30653 11 6.16193 10.5259 5.31802 9.68198C4.47411 8.83807 4 7.69347 4 6.5C4 5.30653 4.47411 4.16193 5.31802 3.31802C6.16193 2.47411 7.30653 2 8.5 2ZM17.5 4C18.4283 4 19.3185 4.36875 19.9749 5.02513C20.6313 5.6815 21 6.57174 21 7.5C21 8.42826 20.6313 9.3185 19.9749 9.97487C19.3185 10.6313 18.4283 11 17.5 11C16.5717 11 15.6815 10.6313 15.0251 9.97487C14.3687 9.3185 14 8.42826 14 7.5C14 6.57174 14.3687 5.6815 15.0251 5.02513C15.6815 4.36875 16.5717 4 17.5 4ZM12 17.5C12 17.1022 12.158 16.7206 12.4393 16.4393C12.7206 16.158 13.1022 16 13.5 16H21.5C21.8978 16 22.2794 16.158 22.5607 16.4393C22.842 16.7206 23 17.1022 23 17.5V21.5C23 21.8978 22.842 22.2794 22.5607 22.5607C22.2794 22.842 21.8978 23 21.5 23H13.5C13.1022 23 12.7206 22.842 12.4393 22.5607C12.158 22.2794 12 21.8978 12 21.5V17.5ZM22 18C21.7348 18 21.4804 17.8946 21.2929 17.7071C21.1054 17.5196 21 17.2652 21 17H20C20 17.5304 20.2107 18.0391 20.5858 18.4142C20.9609 18.7893 21.4696 19 22 19V18ZM22 20C21.4696 20 20.9609 20.2107 20.5858 20.5858C20.2107 20.9609 20 21.4696 20 22H21C21 21.7348 21.1054 21.4804 21.2929 21.2929C21.4804 21.1054 21.7348 21 22 21V20ZM14 17C14 17.2652 13.8946 17.5196 13.7071 17.7071C13.5196 17.8946 13.2652 18 13 18V19C13.5304 19 14.0391 18.7893 14.4142 18.4142C14.7893 18.0391 15 17.5304 15 17H14ZM15 22C15 21.4696 14.7893 20.9609 14.4142 20.5858C14.0391 20.2107 13.5304 20 13 20V21C13.2652 21 13.5196 21.1054 13.7071 21.2929C13.8946 21.4804 14 21.7348 14 22H15ZM19.25 19.5C19.25 19.0359 19.0656 18.5908 18.7374 18.2626C18.4092 17.9344 17.9641 17.75 17.5 17.75C17.0359 17.75 16.5908 17.9344 16.2626 18.2626C15.9344 18.5908 15.75 19.0359 15.75 19.5C15.75 19.9641 15.9344 20.4092 16.2626 20.7374C16.5908 21.0656 17.0359 21.25 17.5 21.25C17.9641 21.25 18.4092 21.0656 18.7374 20.7374C19.0656 20.4092 19.25 19.9641 19.25 19.5Z" fill="#808080"/>
</svg>
