<svg width="24" height="24" viewBox="0 0 24 24" fill="none" xmlns="http://www.w3.org/2000/svg">
<path d="M12 2C17.523 2 22 6.477 22 12C22 17.523 17.523 22 12 22C6.477 22 2 17.523 2 12C2 6.477 6.477 2 12 2ZM15.22 8.97L10.75 13.44L8.78 11.47C8.63782 11.3375 8.44978 11.2654 8.25548 11.2688C8.06118 11.2723 7.87579 11.351 7.73838 11.4884C7.60097 11.6258 7.52225 11.8112 7.51883 12.0055C7.5154 12.1998 7.58752 12.3878 7.72 12.53L10.22 15.03C10.3606 15.1705 10.5512 15.2493 10.75 15.2493C10.9488 15.2493 11.1394 15.1705 11.28 15.03L16.28 10.03C16.3537 9.96134 16.4128 9.87854 16.4538 9.78654C16.4948 9.69454 16.5168 9.59522 16.5186 9.49452C16.5204 9.39382 16.5018 9.29379 16.4641 9.2004C16.4264 9.10701 16.3703 9.02218 16.299 8.95096C16.2278 8.87974 16.143 8.8236 16.0496 8.78588C15.9562 8.74816 15.8562 8.72963 15.7555 8.73141C15.6548 8.73318 15.5555 8.75523 15.4635 8.79622C15.3715 8.83721 15.2887 8.89631 15.22 8.97Z" fill="url(#paint0_linear_407_2)"/>
<path d="M12 2C17.523 2 22 6.477 22 12C22 17.523 17.523 22 12 22C6.477 22 2 17.523 2 12C2 6.477 6.477 2 12 2ZM12 3.5C9.74566 3.5 7.58365 4.39553 5.98959 5.98959C4.39553 7.58365 3.5 9.74566 3.5 12C3.5 14.2543 4.39553 16.4163 5.98959 18.0104C7.58365 19.6045 9.74566 20.5 12 20.5C14.2543 20.5 16.4163 19.6045 18.0104 18.0104C19.6045 16.4163 20.5 14.2543 20.5 12C20.5 9.74566 19.6045 7.58365 18.0104 5.98959C16.4163 4.39553 14.2543 3.5 12 3.5ZM10.75 13.44L15.22 8.97C15.354 8.83704 15.5332 8.75951 15.7219 8.75286C15.9105 8.74622 16.0947 8.81096 16.2378 8.93416C16.3808 9.05736 16.4721 9.22996 16.4934 9.41752C16.5148 9.60508 16.4647 9.79379 16.353 9.946L16.28 10.03L11.28 15.03C11.153 15.157 10.9847 15.2342 10.8055 15.2476C10.6264 15.261 10.4485 15.2097 10.304 15.103L10.22 15.03L7.72 12.53C7.58704 12.396 7.5095 12.2168 7.50286 12.0281C7.49622 11.8395 7.56096 11.6553 7.68416 11.5122C7.80736 11.3692 7.97996 11.2779 8.16752 11.2566C8.35508 11.2352 8.54379 11.2853 8.696 11.397L8.78 11.47L10.75 13.44Z" fill="white"/>
<defs>
<linearGradient id="paint0_linear_407_2" x1="2" y1="12" x2="22" y2="12" gradientUnits="userSpaceOnUse">
<stop stop-color="#B871FF"/>
<stop offset="1" stop-color="#9C39FF"/>
</linearGradient>
</defs>
</svg>
