<svg width="24" height="24" viewBox="0 0 24 24" fill="none" xmlns="http://www.w3.org/2000/svg">
<path d="M15 4.25001V19.746C15 20.824 13.726 21.396 12.92 20.68L8.428 16.686C8.29086 16.5638 8.11366 16.4962 7.93 16.496H4.25C3.65344 16.496 3.08129 16.2591 2.65936 15.8373C2.23744 15.4156 2.00027 14.8436 2 14.247V9.75001C2 9.15327 2.23705 8.58097 2.65901 8.15902C3.08097 7.73706 3.65326 7.50001 4.25 7.50001H7.93C8.11366 7.49979 8.29086 7.43218 8.428 7.31001L12.919 3.31701C13.726 2.59901 15 3.17001 15 4.25001ZM18.992 5.89701C19.0712 5.83843 19.1611 5.79603 19.2567 5.77222C19.3523 5.74842 19.4516 5.74367 19.549 5.75824C19.6464 5.77282 19.74 5.80645 19.8244 5.85719C19.9088 5.90794 19.9824 5.97482 20.041 6.05401C21.3162 7.7739 22.0031 9.85895 22 12C22.0028 14.1412 21.3155 16.2262 20.04 17.946C19.9192 18.0987 19.7437 18.1985 19.5506 18.2241C19.3576 18.2498 19.1621 18.1994 19.0056 18.0835C18.849 17.9676 18.7437 17.7954 18.7119 17.6033C18.6801 17.4111 18.7242 17.2142 18.835 17.054C19.9192 15.5923 20.5031 13.8199 20.5 12C20.5031 10.1801 19.9192 8.4077 18.835 6.94601C18.7764 6.86682 18.734 6.77687 18.7102 6.6813C18.6864 6.58572 18.6817 6.4864 18.6962 6.38899C18.7108 6.29158 18.7444 6.198 18.7952 6.11358C18.8459 6.02917 18.9128 5.95557 18.992 5.89701ZM17.143 8.37001C17.2297 8.32307 17.3247 8.29368 17.4227 8.28351C17.5208 8.27334 17.6198 8.28259 17.7143 8.31073C17.8087 8.33887 17.8967 8.38535 17.9732 8.44751C18.0497 8.50967 18.1132 8.5863 18.16 8.67301C18.696 9.66301 19 10.798 19 12.001C19.0017 13.163 18.7129 14.307 18.16 15.329C18.1131 15.4157 18.0496 15.4923 17.9731 15.5544C17.8967 15.6165 17.8087 15.663 17.7143 15.6911C17.6198 15.7193 17.5208 15.7285 17.4227 15.7184C17.3247 15.7082 17.2297 15.6789 17.143 15.632C17.0563 15.5851 16.9797 15.5216 16.9176 15.4451C16.8555 15.3687 16.809 15.2807 16.7809 15.1863C16.7527 15.0918 16.7435 14.9928 16.7536 14.8948C16.7638 14.7967 16.7931 14.7017 16.84 14.615C17.26 13.838 17.5 12.949 17.5 12.001C17.5 11.053 17.26 10.164 16.84 9.38701C16.7931 9.30034 16.7637 9.20528 16.7535 9.10726C16.7433 9.00923 16.7526 8.91016 16.7807 8.81571C16.8089 8.72126 16.8553 8.63328 16.9175 8.5568C16.9797 8.48033 17.0563 8.41685 17.143 8.37001Z" fill="#B794F4"/>
</svg>
